<mxfile host="app.diagrams.net" agent="Mozilla/5.0 (Windows NT 10.0; Win64; x64; rv:133.0) Gecko/20100101 Firefox/133.0" version="25.0.1">
  <diagram name="Stránka-1" id="XwotyhndCzUARzVBHbgJ">
    <mxGraphModel dx="1195" dy="628" grid="0" gridSize="1" guides="1" tooltips="1" connect="1" arrows="1" fold="1" page="1" pageScale="1" pageWidth="827" pageHeight="1169" math="0" shadow="0">
      <root>
        <mxCell id="0" />
        <mxCell id="1" parent="0" />
        <mxCell id="Dmafgiak7FkJHGfEmC2C-4" value="" style="group" parent="1" vertex="1" connectable="0">
          <mxGeometry x="280" y="310.00000000000006" width="104" height="36" as="geometry" />
        </mxCell>
        <mxCell id="Dmafgiak7FkJHGfEmC2C-1" value="" style="ellipse;whiteSpace=wrap;html=1;" parent="Dmafgiak7FkJHGfEmC2C-4" vertex="1">
          <mxGeometry width="104.00000000000001" height="36" as="geometry" />
        </mxCell>
        <mxCell id="Dmafgiak7FkJHGfEmC2C-2" value="square_brackets" style="ellipse;whiteSpace=wrap;html=1;spacing=2;" parent="Dmafgiak7FkJHGfEmC2C-4" vertex="1">
          <mxGeometry x="4.105263157894737" y="2.4545454545454546" width="95.78947368421052" height="31.090909090909097" as="geometry" />
        </mxCell>
        <mxCell id="sPX58Ci7Uv76JTCd5fkA-83" style="edgeStyle=orthogonalEdgeStyle;rounded=0;orthogonalLoop=1;jettySize=auto;html=1;entryX=0.5;entryY=1;entryDx=0;entryDy=0;exitX=0.191;exitY=0.1;exitDx=0;exitDy=0;exitPerimeter=0;" parent="1" source="Dmafgiak7FkJHGfEmC2C-5" target="sPX58Ci7Uv76JTCd5fkA-15" edge="1">
          <mxGeometry relative="1" as="geometry">
            <Array as="points">
              <mxPoint x="164" y="163" />
              <mxPoint x="64" y="163" />
            </Array>
          </mxGeometry>
        </mxCell>
        <mxCell id="Dmafgiak7FkJHGfEmC2C-5" value="&lt;font style=&quot;font-size: 20px;&quot;&gt;start&lt;/font&gt;" style="ellipse;whiteSpace=wrap;html=1;" parent="1" vertex="1">
          <mxGeometry x="123" y="436" width="217" height="217" as="geometry" />
        </mxCell>
        <mxCell id="Dmafgiak7FkJHGfEmC2C-6" value="&lt;div&gt;Konečný automat&lt;/div&gt;&lt;div&gt;pro IFJ24&lt;/div&gt;" style="text;strokeColor=none;fillColor=none;html=1;fontSize=24;fontStyle=1;verticalAlign=middle;align=center;" parent="1" vertex="1">
          <mxGeometry x="288" y="16" width="256" height="86" as="geometry" />
        </mxCell>
        <mxCell id="Dmafgiak7FkJHGfEmC2C-8" value="" style="group" parent="1" vertex="1" connectable="0">
          <mxGeometry x="184" y="95.5" width="48.54" height="30" as="geometry" />
        </mxCell>
        <mxCell id="Dmafgiak7FkJHGfEmC2C-9" value="" style="ellipse;whiteSpace=wrap;html=1;" parent="Dmafgiak7FkJHGfEmC2C-8" vertex="1">
          <mxGeometry width="48.54" height="30" as="geometry" />
        </mxCell>
        <mxCell id="Dmafgiak7FkJHGfEmC2C-10" value="colon" style="ellipse;whiteSpace=wrap;html=1;spacing=2;" parent="Dmafgiak7FkJHGfEmC2C-8" vertex="1">
          <mxGeometry x="1.9160526315789475" y="2.0454545454545454" width="44.7078947368421" height="25.90909090909091" as="geometry" />
        </mxCell>
        <mxCell id="Dmafgiak7FkJHGfEmC2C-11" value="" style="group" parent="1" vertex="1" connectable="0">
          <mxGeometry x="56.43000000000001" y="266" width="56.64" height="35" as="geometry" />
        </mxCell>
        <mxCell id="Dmafgiak7FkJHGfEmC2C-12" value="" style="ellipse;whiteSpace=wrap;html=1;" parent="Dmafgiak7FkJHGfEmC2C-11" vertex="1">
          <mxGeometry width="56.64" height="35" as="geometry" />
        </mxCell>
        <mxCell id="Dmafgiak7FkJHGfEmC2C-13" value="lbracket" style="ellipse;whiteSpace=wrap;html=1;spacing=2;" parent="Dmafgiak7FkJHGfEmC2C-11" vertex="1">
          <mxGeometry x="2.2357894736842105" y="2.3863636363636362" width="52.16842105263157" height="30.22727272727273" as="geometry" />
        </mxCell>
        <mxCell id="sPX58Ci7Uv76JTCd5fkA-1" value="" style="group" parent="1" vertex="1" connectable="0">
          <mxGeometry x="54" y="219" width="61.49" height="38" as="geometry" />
        </mxCell>
        <mxCell id="sPX58Ci7Uv76JTCd5fkA-2" value="" style="ellipse;whiteSpace=wrap;html=1;" parent="sPX58Ci7Uv76JTCd5fkA-1" vertex="1">
          <mxGeometry width="61.49" height="38" as="geometry" />
        </mxCell>
        <mxCell id="sPX58Ci7Uv76JTCd5fkA-3" value="rbracket" style="ellipse;whiteSpace=wrap;html=1;spacing=2;" parent="sPX58Ci7Uv76JTCd5fkA-1" vertex="1">
          <mxGeometry x="2.4272368421052635" y="2.5909090909090904" width="56.63552631578947" height="32.81818181818182" as="geometry" />
        </mxCell>
        <mxCell id="sPX58Ci7Uv76JTCd5fkA-4" value="" style="group" parent="1" vertex="1" connectable="0">
          <mxGeometry x="58.860000000000014" y="350" width="51.78" height="32" as="geometry" />
        </mxCell>
        <mxCell id="sPX58Ci7Uv76JTCd5fkA-5" value="" style="ellipse;whiteSpace=wrap;html=1;" parent="sPX58Ci7Uv76JTCd5fkA-4" vertex="1">
          <mxGeometry width="51.78000000000001" height="32" as="geometry" />
        </mxCell>
        <mxCell id="sPX58Ci7Uv76JTCd5fkA-6" value="lblock" style="ellipse;whiteSpace=wrap;html=1;spacing=2;" parent="sPX58Ci7Uv76JTCd5fkA-4" vertex="1">
          <mxGeometry x="2.043947368421053" y="2.181818181818182" width="47.69210526315789" height="27.636363636363644" as="geometry" />
        </mxCell>
        <mxCell id="sPX58Ci7Uv76JTCd5fkA-7" value="" style="group" parent="1" vertex="1" connectable="0">
          <mxGeometry x="58.86" y="309" width="51.78" height="32" as="geometry" />
        </mxCell>
        <mxCell id="sPX58Ci7Uv76JTCd5fkA-8" value="" style="ellipse;whiteSpace=wrap;html=1;" parent="sPX58Ci7Uv76JTCd5fkA-7" vertex="1">
          <mxGeometry width="51.78" height="31.999999999999993" as="geometry" />
        </mxCell>
        <mxCell id="sPX58Ci7Uv76JTCd5fkA-9" value="rblock" style="ellipse;whiteSpace=wrap;html=1;spacing=2;" parent="sPX58Ci7Uv76JTCd5fkA-7" vertex="1">
          <mxGeometry x="2.0439473684210525" y="2.1818181818181817" width="47.692105263157885" height="27.636363636363637" as="geometry" />
        </mxCell>
        <mxCell id="sPX58Ci7Uv76JTCd5fkA-10" value="" style="group" parent="1" vertex="1" connectable="0">
          <mxGeometry x="116" y="95" width="59.87" height="37" as="geometry" />
        </mxCell>
        <mxCell id="sPX58Ci7Uv76JTCd5fkA-11" value="" style="ellipse;whiteSpace=wrap;html=1;" parent="sPX58Ci7Uv76JTCd5fkA-10" vertex="1">
          <mxGeometry width="59.87" height="37" as="geometry" />
        </mxCell>
        <mxCell id="sPX58Ci7Uv76JTCd5fkA-12" value="comma" style="ellipse;whiteSpace=wrap;html=1;spacing=2;" parent="sPX58Ci7Uv76JTCd5fkA-10" vertex="1">
          <mxGeometry x="2.3632894736842105" y="2.522727272727273" width="55.14342105263157" height="31.954545454545453" as="geometry" />
        </mxCell>
        <mxCell id="sPX58Ci7Uv76JTCd5fkA-13" value="" style="group" parent="1" vertex="1" connectable="0">
          <mxGeometry x="20" y="97" width="89" height="33" as="geometry" />
        </mxCell>
        <mxCell id="sPX58Ci7Uv76JTCd5fkA-14" value="" style="ellipse;whiteSpace=wrap;html=1;" parent="sPX58Ci7Uv76JTCd5fkA-13" vertex="1">
          <mxGeometry width="89" height="33" as="geometry" />
        </mxCell>
        <mxCell id="sPX58Ci7Uv76JTCd5fkA-15" value="question_mark" style="ellipse;whiteSpace=wrap;html=1;spacing=2;" parent="sPX58Ci7Uv76JTCd5fkA-13" vertex="1">
          <mxGeometry x="3.513157894736842" y="2.25" width="81.9736842105263" height="28.500000000000004" as="geometry" />
        </mxCell>
        <mxCell id="sPX58Ci7Uv76JTCd5fkA-21" value="" style="edgeStyle=none;orthogonalLoop=1;jettySize=auto;html=1;rounded=0;curved=1;" parent="1" edge="1">
          <mxGeometry width="80" relative="1" as="geometry">
            <mxPoint x="12" y="543" as="sourcePoint" />
            <mxPoint x="123" y="543" as="targetPoint" />
            <Array as="points" />
          </mxGeometry>
        </mxCell>
        <mxCell id="sPX58Ci7Uv76JTCd5fkA-22" value="&quot;mezera&quot;,\n,\t.\r" style="text;html=1;align=center;verticalAlign=middle;whiteSpace=wrap;rounded=0;" parent="1" vertex="1">
          <mxGeometry x="46" y="445" width="84" height="30" as="geometry" />
        </mxCell>
        <mxCell id="sPX58Ci7Uv76JTCd5fkA-23" style="edgeStyle=orthogonalEdgeStyle;rounded=0;orthogonalLoop=1;jettySize=auto;html=1;entryX=0.018;entryY=0.355;entryDx=0;entryDy=0;entryPerimeter=0;exitX=0.24;exitY=0.074;exitDx=0;exitDy=0;exitPerimeter=0;" parent="1" target="Dmafgiak7FkJHGfEmC2C-5" edge="1">
          <mxGeometry relative="1" as="geometry">
            <mxPoint x="155.99999999999994" y="468.998" as="sourcePoint" />
            <mxPoint x="113.90199999999997" y="512.8320000000001" as="targetPoint" />
            <Array as="points">
              <mxPoint x="65" y="469" />
              <mxPoint x="65" y="513" />
            </Array>
          </mxGeometry>
        </mxCell>
        <mxCell id="sPX58Ci7Uv76JTCd5fkA-24" value="" style="group" parent="1" vertex="1" connectable="0">
          <mxGeometry x="219" y="217.5" width="54" height="33.37" as="geometry" />
        </mxCell>
        <mxCell id="sPX58Ci7Uv76JTCd5fkA-25" value="" style="ellipse;whiteSpace=wrap;html=1;" parent="sPX58Ci7Uv76JTCd5fkA-24" vertex="1">
          <mxGeometry width="54" height="33.37" as="geometry" />
        </mxCell>
        <mxCell id="sPX58Ci7Uv76JTCd5fkA-26" value="lequal" style="ellipse;whiteSpace=wrap;html=1;spacing=2;" parent="sPX58Ci7Uv76JTCd5fkA-24" vertex="1">
          <mxGeometry x="2.131578947368421" y="2.2752272727272724" width="49.73684210526315" height="28.819545454545455" as="geometry" />
        </mxCell>
        <mxCell id="sPX58Ci7Uv76JTCd5fkA-27" value="" style="group" parent="1" vertex="1" connectable="0">
          <mxGeometry x="197.9999999999999" y="393" width="46.93" height="29" as="geometry" />
        </mxCell>
        <mxCell id="sPX58Ci7Uv76JTCd5fkA-28" value="" style="ellipse;whiteSpace=wrap;html=1;" parent="sPX58Ci7Uv76JTCd5fkA-27" vertex="1">
          <mxGeometry width="46.93000000000001" height="29" as="geometry" />
        </mxCell>
        <mxCell id="sPX58Ci7Uv76JTCd5fkA-29" value="at" style="ellipse;whiteSpace=wrap;html=1;spacing=2;" parent="sPX58Ci7Uv76JTCd5fkA-27" vertex="1">
          <mxGeometry x="1.8525000000000003" y="1.977272727272727" width="43.224999999999994" height="25.04545454545455" as="geometry" />
        </mxCell>
        <mxCell id="sPX58Ci7Uv76JTCd5fkA-30" value="" style="group" parent="1" vertex="1" connectable="0">
          <mxGeometry x="46.72" y="178" width="76.06" height="35" as="geometry" />
        </mxCell>
        <mxCell id="sPX58Ci7Uv76JTCd5fkA-31" value="" style="ellipse;whiteSpace=wrap;html=1;" parent="sPX58Ci7Uv76JTCd5fkA-30" vertex="1">
          <mxGeometry width="76.06" height="35" as="geometry" />
        </mxCell>
        <mxCell id="sPX58Ci7Uv76JTCd5fkA-32" value="vertical_bar" style="ellipse;whiteSpace=wrap;html=1;spacing=2;" parent="sPX58Ci7Uv76JTCd5fkA-30" vertex="1">
          <mxGeometry x="3.0023684210526316" y="2.386363636363636" width="70.05526315789473" height="30.227272727272723" as="geometry" />
        </mxCell>
        <mxCell id="sPX58Ci7Uv76JTCd5fkA-33" value="" style="group" parent="1" vertex="1" connectable="0">
          <mxGeometry x="412" y="94" width="46.17" height="31" as="geometry" />
        </mxCell>
        <mxCell id="sPX58Ci7Uv76JTCd5fkA-34" value="" style="ellipse;whiteSpace=wrap;html=1;" parent="sPX58Ci7Uv76JTCd5fkA-33" vertex="1">
          <mxGeometry width="46.17" height="31" as="geometry" />
        </mxCell>
        <mxCell id="sPX58Ci7Uv76JTCd5fkA-35" value="dot" style="ellipse;whiteSpace=wrap;html=1;spacing=2;" parent="sPX58Ci7Uv76JTCd5fkA-33" vertex="1">
          <mxGeometry x="1.8225000000000002" y="2.1136363636363638" width="42.525" height="26.772727272727273" as="geometry" />
        </mxCell>
        <mxCell id="sPX58Ci7Uv76JTCd5fkA-36" value="" style="group" parent="1" vertex="1" connectable="0">
          <mxGeometry x="54.809999999999945" y="389" width="59.87" height="37" as="geometry" />
        </mxCell>
        <mxCell id="sPX58Ci7Uv76JTCd5fkA-37" value="" style="ellipse;whiteSpace=wrap;html=1;" parent="sPX58Ci7Uv76JTCd5fkA-36" vertex="1">
          <mxGeometry width="59.87" height="37" as="geometry" />
        </mxCell>
        <mxCell id="sPX58Ci7Uv76JTCd5fkA-38" value="multiply" style="ellipse;whiteSpace=wrap;html=1;spacing=2;" parent="sPX58Ci7Uv76JTCd5fkA-36" vertex="1">
          <mxGeometry x="2.3632894736842105" y="2.522727272727273" width="55.14342105263157" height="31.95454545454546" as="geometry" />
        </mxCell>
        <mxCell id="sPX58Ci7Uv76JTCd5fkA-39" value="" style="group" parent="1" vertex="1" connectable="0">
          <mxGeometry x="355" y="95" width="50.17" height="31" as="geometry" />
        </mxCell>
        <mxCell id="sPX58Ci7Uv76JTCd5fkA-40" value="" style="ellipse;whiteSpace=wrap;html=1;" parent="sPX58Ci7Uv76JTCd5fkA-39" vertex="1">
          <mxGeometry width="50.17" height="31" as="geometry" />
        </mxCell>
        <mxCell id="sPX58Ci7Uv76JTCd5fkA-41" value="minus" style="ellipse;whiteSpace=wrap;html=1;spacing=2;" parent="sPX58Ci7Uv76JTCd5fkA-39" vertex="1">
          <mxGeometry x="1.9803947368421055" y="2.1136363636363638" width="46.209210526315786" height="26.772727272727277" as="geometry" />
        </mxCell>
        <mxCell id="sPX58Ci7Uv76JTCd5fkA-42" value="" style="group" parent="1" vertex="1" connectable="0">
          <mxGeometry x="241" y="96.5" width="46.92" height="29" as="geometry" />
        </mxCell>
        <mxCell id="sPX58Ci7Uv76JTCd5fkA-43" value="" style="ellipse;whiteSpace=wrap;html=1;" parent="sPX58Ci7Uv76JTCd5fkA-42" vertex="1">
          <mxGeometry width="46.92" height="29" as="geometry" />
        </mxCell>
        <mxCell id="sPX58Ci7Uv76JTCd5fkA-44" value="plus" style="ellipse;whiteSpace=wrap;html=1;spacing=2;" parent="sPX58Ci7Uv76JTCd5fkA-42" vertex="1">
          <mxGeometry x="1.8521052631578951" y="1.9772727272727273" width="43.21578947368422" height="25.04545454545455" as="geometry" />
        </mxCell>
        <mxCell id="sPX58Ci7Uv76JTCd5fkA-46" value="" style="group" parent="1" vertex="1" connectable="0">
          <mxGeometry x="179.14000000000001" y="181" width="53.4" height="33" as="geometry" />
        </mxCell>
        <mxCell id="sPX58Ci7Uv76JTCd5fkA-47" value="" style="ellipse;whiteSpace=wrap;html=1;" parent="sPX58Ci7Uv76JTCd5fkA-46" vertex="1">
          <mxGeometry width="53.4" height="33" as="geometry" />
        </mxCell>
        <mxCell id="sPX58Ci7Uv76JTCd5fkA-48" value="less" style="ellipse;whiteSpace=wrap;html=1;spacing=2;" parent="sPX58Ci7Uv76JTCd5fkA-46" vertex="1">
          <mxGeometry x="2.1078947368421046" y="2.25" width="49.18421052631578" height="28.500000000000004" as="geometry" />
        </mxCell>
        <mxCell id="sPX58Ci7Uv76JTCd5fkA-49" value="" style="group" parent="1" vertex="1" connectable="0">
          <mxGeometry x="387" y="237" width="60" height="37.08" as="geometry" />
        </mxCell>
        <mxCell id="sPX58Ci7Uv76JTCd5fkA-50" value="" style="ellipse;whiteSpace=wrap;html=1;" parent="sPX58Ci7Uv76JTCd5fkA-49" vertex="1">
          <mxGeometry width="60" height="37.08" as="geometry" />
        </mxCell>
        <mxCell id="sPX58Ci7Uv76JTCd5fkA-51" value="mequal" style="ellipse;whiteSpace=wrap;html=1;spacing=2;" parent="sPX58Ci7Uv76JTCd5fkA-49" vertex="1">
          <mxGeometry x="2.3684210526315788" y="2.5281818181818183" width="55.26315789473683" height="32.02363636363637" as="geometry" />
        </mxCell>
        <mxCell id="sPX58Ci7Uv76JTCd5fkA-52" value="" style="group" parent="1" vertex="1" connectable="0">
          <mxGeometry x="390.29999999999995" y="186" width="53.4" height="33" as="geometry" />
        </mxCell>
        <mxCell id="sPX58Ci7Uv76JTCd5fkA-53" value="" style="ellipse;whiteSpace=wrap;html=1;" parent="sPX58Ci7Uv76JTCd5fkA-52" vertex="1">
          <mxGeometry width="53.4" height="33" as="geometry" />
        </mxCell>
        <mxCell id="sPX58Ci7Uv76JTCd5fkA-54" value="more" style="ellipse;whiteSpace=wrap;html=1;spacing=2;" parent="sPX58Ci7Uv76JTCd5fkA-52" vertex="1">
          <mxGeometry x="2.107894736842105" y="2.25" width="49.18421052631578" height="28.500000000000004" as="geometry" />
        </mxCell>
        <mxCell id="gILt44JBYSnNEbUEAERU-37" value="&amp;gt;" style="text;html=1;align=center;verticalAlign=middle;whiteSpace=wrap;rounded=0;" parent="sPX58Ci7Uv76JTCd5fkA-52" vertex="1">
          <mxGeometry x="8.700000000000045" y="-22" width="16" height="26" as="geometry" />
        </mxCell>
        <mxCell id="sPX58Ci7Uv76JTCd5fkA-55" value="" style="group" parent="1" vertex="1" connectable="0">
          <mxGeometry x="320" y="215.87" width="56.64" height="35" as="geometry" />
        </mxCell>
        <mxCell id="sPX58Ci7Uv76JTCd5fkA-56" value="" style="ellipse;whiteSpace=wrap;html=1;" parent="sPX58Ci7Uv76JTCd5fkA-55" vertex="1">
          <mxGeometry width="56.64" height="35" as="geometry" />
        </mxCell>
        <mxCell id="sPX58Ci7Uv76JTCd5fkA-57" value="nequal" style="ellipse;whiteSpace=wrap;html=1;spacing=2;" parent="sPX58Ci7Uv76JTCd5fkA-55" vertex="1">
          <mxGeometry x="2.2357894736842105" y="2.3863636363636362" width="52.168421052631565" height="30.227272727272734" as="geometry" />
        </mxCell>
        <mxCell id="sPX58Ci7Uv76JTCd5fkA-61" value="" style="group" parent="1" vertex="1" connectable="0">
          <mxGeometry x="194.60000000000002" y="266.5" width="55.02" height="34" as="geometry" />
        </mxCell>
        <mxCell id="sPX58Ci7Uv76JTCd5fkA-62" value="" style="ellipse;whiteSpace=wrap;html=1;" parent="sPX58Ci7Uv76JTCd5fkA-61" vertex="1">
          <mxGeometry width="55.02" height="34" as="geometry" />
        </mxCell>
        <mxCell id="sPX58Ci7Uv76JTCd5fkA-63" value="equal" style="ellipse;whiteSpace=wrap;html=1;spacing=2;" parent="sPX58Ci7Uv76JTCd5fkA-61" vertex="1">
          <mxGeometry x="2.171842105263158" y="2.318181818181818" width="50.676315789473676" height="29.363636363636363" as="geometry" />
        </mxCell>
        <mxCell id="sPX58Ci7Uv76JTCd5fkA-64" value="" style="group" parent="1" vertex="1" connectable="0">
          <mxGeometry x="299" y="97.5" width="46.92" height="29" as="geometry" />
        </mxCell>
        <mxCell id="sPX58Ci7Uv76JTCd5fkA-65" value="" style="ellipse;whiteSpace=wrap;html=1;" parent="sPX58Ci7Uv76JTCd5fkA-64" vertex="1">
          <mxGeometry width="46.92" height="29" as="geometry" />
        </mxCell>
        <mxCell id="sPX58Ci7Uv76JTCd5fkA-66" value="next" style="ellipse;whiteSpace=wrap;html=1;spacing=2;" parent="sPX58Ci7Uv76JTCd5fkA-64" vertex="1">
          <mxGeometry x="1.8521052631578947" y="1.9772727272727273" width="43.2157894736842" height="25.04545454545455" as="geometry" />
        </mxCell>
        <mxCell id="sPX58Ci7Uv76JTCd5fkA-68" value="" style="group" parent="1" vertex="1" connectable="0">
          <mxGeometry x="286" y="264" width="93" height="38" as="geometry" />
        </mxCell>
        <mxCell id="sPX58Ci7Uv76JTCd5fkA-69" value="" style="ellipse;whiteSpace=wrap;html=1;" parent="sPX58Ci7Uv76JTCd5fkA-68" vertex="1">
          <mxGeometry width="93.00000000000001" height="37.99999999999999" as="geometry" />
        </mxCell>
        <mxCell id="sPX58Ci7Uv76JTCd5fkA-70" value="compare_equal" style="ellipse;whiteSpace=wrap;html=1;spacing=2;" parent="sPX58Ci7Uv76JTCd5fkA-68" vertex="1">
          <mxGeometry x="3.671052631578947" y="2.5909090909090904" width="85.65789473684208" height="32.81818181818182" as="geometry" />
        </mxCell>
        <mxCell id="sPX58Ci7Uv76JTCd5fkA-71" value="" style="group" parent="1" vertex="1" connectable="0">
          <mxGeometry x="190.72" y="347" width="61.49" height="38" as="geometry" />
        </mxCell>
        <mxCell id="sPX58Ci7Uv76JTCd5fkA-72" value="" style="ellipse;whiteSpace=wrap;html=1;" parent="sPX58Ci7Uv76JTCd5fkA-71" vertex="1">
          <mxGeometry width="61.49" height="38" as="geometry" />
        </mxCell>
        <mxCell id="sPX58Ci7Uv76JTCd5fkA-73" value="division" style="ellipse;whiteSpace=wrap;html=1;spacing=2;" parent="sPX58Ci7Uv76JTCd5fkA-71" vertex="1">
          <mxGeometry x="2.4272368421052635" y="2.5909090909090904" width="56.63552631578947" height="32.81818181818181" as="geometry" />
        </mxCell>
        <mxCell id="sPX58Ci7Uv76JTCd5fkA-87" value="?" style="text;html=1;align=center;verticalAlign=middle;whiteSpace=wrap;rounded=0;" parent="1" vertex="1">
          <mxGeometry x="47" y="131" width="16" height="26" as="geometry" />
        </mxCell>
        <mxCell id="sPX58Ci7Uv76JTCd5fkA-88" value="LEXEM" style="ellipse;whiteSpace=wrap;html=1;" parent="1" vertex="1">
          <mxGeometry x="194.6" y="308.59000000000003" width="53.73" height="32.83" as="geometry" />
        </mxCell>
        <mxCell id="sPX58Ci7Uv76JTCd5fkA-90" value="LEXEM" style="ellipse;whiteSpace=wrap;html=1;" parent="1" vertex="1">
          <mxGeometry x="272" y="181" width="55.64" height="34" as="geometry" />
        </mxCell>
        <mxCell id="sPX58Ci7Uv76JTCd5fkA-91" value="koment" style="ellipse;whiteSpace=wrap;html=1;" parent="1" vertex="1">
          <mxGeometry x="283" y="352.08" width="58.91" height="28" as="geometry" />
        </mxCell>
        <mxCell id="sPX58Ci7Uv76JTCd5fkA-92" value="" style="endArrow=classic;html=1;rounded=0;edgeStyle=orthogonalEdgeStyle;entryX=0.5;entryY=1;entryDx=0;entryDy=0;" parent="1" target="sPX58Ci7Uv76JTCd5fkA-35" edge="1">
          <mxGeometry width="50" height="50" relative="1" as="geometry">
            <mxPoint x="65" y="163" as="sourcePoint" />
            <mxPoint x="698" y="132" as="targetPoint" />
          </mxGeometry>
        </mxCell>
        <mxCell id="sPX58Ci7Uv76JTCd5fkA-93" value="" style="endArrow=classic;html=1;rounded=0;entryX=1;entryY=0.5;entryDx=0;entryDy=0;" parent="1" target="Dmafgiak7FkJHGfEmC2C-12" edge="1">
          <mxGeometry width="50" height="50" relative="1" as="geometry">
            <mxPoint x="164" y="284" as="sourcePoint" />
            <mxPoint x="698" y="131" as="targetPoint" />
          </mxGeometry>
        </mxCell>
        <mxCell id="sPX58Ci7Uv76JTCd5fkA-94" value="" style="endArrow=classic;html=1;rounded=0;" parent="1" edge="1">
          <mxGeometry width="50" height="50" relative="1" as="geometry">
            <mxPoint x="380" y="163" as="sourcePoint" />
            <mxPoint x="379.79999999999995" y="127" as="targetPoint" />
          </mxGeometry>
        </mxCell>
        <mxCell id="sPX58Ci7Uv76JTCd5fkA-95" value="" style="endArrow=classic;html=1;rounded=0;" parent="1" edge="1">
          <mxGeometry width="50" height="50" relative="1" as="geometry">
            <mxPoint x="324.20000000000005" y="161.5" as="sourcePoint" />
            <mxPoint x="324" y="125.5" as="targetPoint" />
          </mxGeometry>
        </mxCell>
        <mxCell id="sPX58Ci7Uv76JTCd5fkA-96" value="" style="endArrow=classic;html=1;rounded=0;" parent="1" edge="1">
          <mxGeometry width="50" height="50" relative="1" as="geometry">
            <mxPoint x="265.20000000000005" y="161.5" as="sourcePoint" />
            <mxPoint x="265" y="125.5" as="targetPoint" />
          </mxGeometry>
        </mxCell>
        <mxCell id="sPX58Ci7Uv76JTCd5fkA-97" value="" style="endArrow=classic;html=1;rounded=0;" parent="1" edge="1">
          <mxGeometry width="50" height="50" relative="1" as="geometry">
            <mxPoint x="208.18000000000006" y="162" as="sourcePoint" />
            <mxPoint x="207.98000000000002" y="126" as="targetPoint" />
          </mxGeometry>
        </mxCell>
        <mxCell id="sPX58Ci7Uv76JTCd5fkA-98" value="" style="endArrow=classic;html=1;rounded=0;entryX=1;entryY=0.5;entryDx=0;entryDy=0;" parent="1" target="sPX58Ci7Uv76JTCd5fkA-5" edge="1">
          <mxGeometry width="50" height="50" relative="1" as="geometry">
            <mxPoint x="164" y="366" as="sourcePoint" />
            <mxPoint x="405" y="131" as="targetPoint" />
          </mxGeometry>
        </mxCell>
        <mxCell id="sPX58Ci7Uv76JTCd5fkA-99" value="" style="endArrow=classic;html=1;rounded=0;entryX=1;entryY=0.5;entryDx=0;entryDy=0;" parent="1" target="sPX58Ci7Uv76JTCd5fkA-8" edge="1">
          <mxGeometry width="50" height="50" relative="1" as="geometry">
            <mxPoint x="166" y="325" as="sourcePoint" />
            <mxPoint x="335.46" y="132" as="targetPoint" />
          </mxGeometry>
        </mxCell>
        <mxCell id="sPX58Ci7Uv76JTCd5fkA-100" value="" style="endArrow=classic;html=1;rounded=0;entryX=1;entryY=0.5;entryDx=0;entryDy=0;" parent="1" target="sPX58Ci7Uv76JTCd5fkA-2" edge="1">
          <mxGeometry width="50" height="50" relative="1" as="geometry">
            <mxPoint x="165" y="238" as="sourcePoint" />
            <mxPoint x="270.21000000000004" y="130.5" as="targetPoint" />
          </mxGeometry>
        </mxCell>
        <mxCell id="sPX58Ci7Uv76JTCd5fkA-101" value="" style="endArrow=classic;html=1;rounded=0;entryX=1;entryY=0.5;entryDx=0;entryDy=0;" parent="1" target="sPX58Ci7Uv76JTCd5fkA-31" edge="1">
          <mxGeometry width="50" height="50" relative="1" as="geometry">
            <mxPoint x="166" y="196" as="sourcePoint" />
            <mxPoint x="211.60000000000002" y="130" as="targetPoint" />
          </mxGeometry>
        </mxCell>
        <mxCell id="sPX58Ci7Uv76JTCd5fkA-103" value="" style="endArrow=classic;html=1;rounded=0;" parent="1" edge="1">
          <mxGeometry width="50" height="50" relative="1" as="geometry">
            <mxPoint x="147" y="162" as="sourcePoint" />
            <mxPoint x="146.65000000000003" y="134" as="targetPoint" />
          </mxGeometry>
        </mxCell>
        <mxCell id="gILt44JBYSnNEbUEAERU-1" value="" style="endArrow=classic;html=1;rounded=0;entryX=1;entryY=0.5;entryDx=0;entryDy=0;" parent="1" target="sPX58Ci7Uv76JTCd5fkA-37" edge="1">
          <mxGeometry width="50" height="50" relative="1" as="geometry">
            <mxPoint x="164" y="408" as="sourcePoint" />
            <mxPoint x="461" y="306" as="targetPoint" />
          </mxGeometry>
        </mxCell>
        <mxCell id="gILt44JBYSnNEbUEAERU-4" value="" style="endArrow=classic;html=1;rounded=0;entryX=0;entryY=0.5;entryDx=0;entryDy=0;" parent="1" target="sPX58Ci7Uv76JTCd5fkA-28" edge="1">
          <mxGeometry width="50" height="50" relative="1" as="geometry">
            <mxPoint x="165" y="408" as="sourcePoint" />
            <mxPoint x="461" y="239" as="targetPoint" />
          </mxGeometry>
        </mxCell>
        <mxCell id="gILt44JBYSnNEbUEAERU-5" value="" style="endArrow=classic;html=1;rounded=0;entryX=0;entryY=0.5;entryDx=0;entryDy=0;" parent="1" target="sPX58Ci7Uv76JTCd5fkA-72" edge="1">
          <mxGeometry width="50" height="50" relative="1" as="geometry">
            <mxPoint x="163" y="366" as="sourcePoint" />
            <mxPoint x="461" y="239" as="targetPoint" />
          </mxGeometry>
        </mxCell>
        <mxCell id="gILt44JBYSnNEbUEAERU-6" value="" style="endArrow=classic;html=1;rounded=0;entryX=0;entryY=0.5;entryDx=0;entryDy=0;exitX=1;exitY=0.5;exitDx=0;exitDy=0;" parent="1" source="sPX58Ci7Uv76JTCd5fkA-72" target="sPX58Ci7Uv76JTCd5fkA-91" edge="1">
          <mxGeometry width="50" height="50" relative="1" as="geometry">
            <mxPoint x="411" y="289" as="sourcePoint" />
            <mxPoint x="461" y="239" as="targetPoint" />
          </mxGeometry>
        </mxCell>
        <mxCell id="gILt44JBYSnNEbUEAERU-7" value="" style="endArrow=classic;html=1;rounded=0;entryX=0;entryY=0.5;entryDx=0;entryDy=0;" parent="1" target="sPX58Ci7Uv76JTCd5fkA-88" edge="1">
          <mxGeometry width="50" height="50" relative="1" as="geometry">
            <mxPoint x="163" y="325" as="sourcePoint" />
            <mxPoint x="461" y="239" as="targetPoint" />
          </mxGeometry>
        </mxCell>
        <mxCell id="gILt44JBYSnNEbUEAERU-8" value="" style="endArrow=classic;html=1;rounded=0;entryX=0;entryY=0.5;entryDx=0;entryDy=0;exitX=1;exitY=0.5;exitDx=0;exitDy=0;" parent="1" source="sPX58Ci7Uv76JTCd5fkA-88" target="Dmafgiak7FkJHGfEmC2C-1" edge="1">
          <mxGeometry width="50" height="50" relative="1" as="geometry">
            <mxPoint x="411" y="289" as="sourcePoint" />
            <mxPoint x="461" y="239" as="targetPoint" />
          </mxGeometry>
        </mxCell>
        <mxCell id="gILt44JBYSnNEbUEAERU-9" value="" style="endArrow=classic;html=1;rounded=0;entryX=0;entryY=0.5;entryDx=0;entryDy=0;" parent="1" target="sPX58Ci7Uv76JTCd5fkA-62" edge="1">
          <mxGeometry width="50" height="50" relative="1" as="geometry">
            <mxPoint x="164" y="285" as="sourcePoint" />
            <mxPoint x="461" y="239" as="targetPoint" />
          </mxGeometry>
        </mxCell>
        <mxCell id="gILt44JBYSnNEbUEAERU-12" value="" style="endArrow=classic;html=1;rounded=0;exitX=1;exitY=0.5;exitDx=0;exitDy=0;entryX=0;entryY=0.5;entryDx=0;entryDy=0;" parent="1" source="sPX58Ci7Uv76JTCd5fkA-62" target="sPX58Ci7Uv76JTCd5fkA-69" edge="1">
          <mxGeometry width="50" height="50" relative="1" as="geometry">
            <mxPoint x="411" y="289" as="sourcePoint" />
            <mxPoint x="461" y="239" as="targetPoint" />
          </mxGeometry>
        </mxCell>
        <mxCell id="gILt44JBYSnNEbUEAERU-13" value="" style="endArrow=classic;html=1;rounded=0;entryX=0.391;entryY=0;entryDx=0;entryDy=0;entryPerimeter=0;" parent="1" target="sPX58Ci7Uv76JTCd5fkA-47" edge="1">
          <mxGeometry width="50" height="50" relative="1" as="geometry">
            <mxPoint x="200" y="162" as="sourcePoint" />
            <mxPoint x="461" y="239" as="targetPoint" />
          </mxGeometry>
        </mxCell>
        <mxCell id="gILt44JBYSnNEbUEAERU-15" value="" style="endArrow=classic;html=1;rounded=0;edgeStyle=orthogonalEdgeStyle;exitX=1;exitY=0.5;exitDx=0;exitDy=0;entryX=0.747;entryY=0.997;entryDx=0;entryDy=0;entryPerimeter=0;" parent="1" target="sPX58Ci7Uv76JTCd5fkA-91" edge="1">
          <mxGeometry width="50" height="50" relative="1" as="geometry">
            <mxPoint x="341.9100000000019" y="365.7899999999999" as="sourcePoint" />
            <mxPoint x="318" y="402" as="targetPoint" />
            <Array as="points">
              <mxPoint x="367" y="366" />
              <mxPoint x="367" y="393" />
              <mxPoint x="327" y="393" />
            </Array>
          </mxGeometry>
        </mxCell>
        <mxCell id="gILt44JBYSnNEbUEAERU-16" value="" style="endArrow=classic;html=1;rounded=0;entryX=0.654;entryY=0.032;entryDx=0;entryDy=0;entryPerimeter=0;exitX=0.085;exitY=0.84;exitDx=0;exitDy=0;exitPerimeter=0;edgeStyle=orthogonalEdgeStyle;" parent="1" source="sPX58Ci7Uv76JTCd5fkA-91" target="Dmafgiak7FkJHGfEmC2C-5" edge="1">
          <mxGeometry width="50" height="50" relative="1" as="geometry">
            <mxPoint x="411" y="289" as="sourcePoint" />
            <mxPoint x="461" y="239" as="targetPoint" />
          </mxGeometry>
        </mxCell>
        <mxCell id="gILt44JBYSnNEbUEAERU-17" value="" style="endArrow=classic;html=1;rounded=0;edgeStyle=orthogonalEdgeStyle;exitX=0.5;exitY=1;exitDx=0;exitDy=0;entryX=0;entryY=0.5;entryDx=0;entryDy=0;" parent="1" source="sPX58Ci7Uv76JTCd5fkA-47" target="sPX58Ci7Uv76JTCd5fkA-25" edge="1">
          <mxGeometry width="50" height="50" relative="1" as="geometry">
            <mxPoint x="411" y="289" as="sourcePoint" />
            <mxPoint x="461" y="239" as="targetPoint" />
          </mxGeometry>
        </mxCell>
        <mxCell id="gILt44JBYSnNEbUEAERU-18" value="" style="endArrow=classic;html=1;rounded=0;entryX=0.5;entryY=0;entryDx=0;entryDy=0;" parent="1" target="sPX58Ci7Uv76JTCd5fkA-90" edge="1">
          <mxGeometry width="50" height="50" relative="1" as="geometry">
            <mxPoint x="300" y="163" as="sourcePoint" />
            <mxPoint x="461" y="239" as="targetPoint" />
          </mxGeometry>
        </mxCell>
        <mxCell id="gILt44JBYSnNEbUEAERU-19" value="" style="endArrow=classic;html=1;rounded=0;edgeStyle=orthogonalEdgeStyle;entryX=0;entryY=0.5;entryDx=0;entryDy=0;exitX=0.5;exitY=1;exitDx=0;exitDy=0;" parent="1" source="sPX58Ci7Uv76JTCd5fkA-90" target="sPX58Ci7Uv76JTCd5fkA-57" edge="1">
          <mxGeometry width="50" height="50" relative="1" as="geometry">
            <mxPoint x="411" y="289" as="sourcePoint" />
            <mxPoint x="461" y="239" as="targetPoint" />
          </mxGeometry>
        </mxCell>
        <mxCell id="gILt44JBYSnNEbUEAERU-20" value="" style="endArrow=classic;html=1;rounded=0;entryX=0.5;entryY=0;entryDx=0;entryDy=0;" parent="1" target="sPX58Ci7Uv76JTCd5fkA-53" edge="1">
          <mxGeometry width="50" height="50" relative="1" as="geometry">
            <mxPoint x="417" y="165" as="sourcePoint" />
            <mxPoint x="450" y="239" as="targetPoint" />
          </mxGeometry>
        </mxCell>
        <mxCell id="gILt44JBYSnNEbUEAERU-21" value="" style="endArrow=classic;html=1;rounded=0;entryX=0.5;entryY=0;entryDx=0;entryDy=0;" parent="1" target="sPX58Ci7Uv76JTCd5fkA-50" edge="1">
          <mxGeometry width="50" height="50" relative="1" as="geometry">
            <mxPoint x="417" y="221" as="sourcePoint" />
            <mxPoint x="461" y="239" as="targetPoint" />
          </mxGeometry>
        </mxCell>
        <mxCell id="gILt44JBYSnNEbUEAERU-22" value="," style="text;html=1;align=center;verticalAlign=middle;whiteSpace=wrap;rounded=0;" parent="1" vertex="1">
          <mxGeometry x="131" y="133" width="16" height="26" as="geometry" />
        </mxCell>
        <mxCell id="gILt44JBYSnNEbUEAERU-23" value=":" style="text;html=1;align=center;verticalAlign=middle;whiteSpace=wrap;rounded=0;" parent="1" vertex="1">
          <mxGeometry x="193" y="133" width="16" height="26" as="geometry" />
        </mxCell>
        <mxCell id="gILt44JBYSnNEbUEAERU-24" value="+" style="text;html=1;align=center;verticalAlign=middle;whiteSpace=wrap;rounded=0;" parent="1" vertex="1">
          <mxGeometry x="249" y="130" width="16" height="26" as="geometry" />
        </mxCell>
        <mxCell id="gILt44JBYSnNEbUEAERU-25" value=";" style="text;html=1;align=center;verticalAlign=middle;whiteSpace=wrap;rounded=0;" parent="1" vertex="1">
          <mxGeometry x="306" y="130" width="16" height="26" as="geometry" />
        </mxCell>
        <mxCell id="gILt44JBYSnNEbUEAERU-26" value="-" style="text;html=1;align=center;verticalAlign=middle;whiteSpace=wrap;rounded=0;" parent="1" vertex="1">
          <mxGeometry x="366" y="128" width="16" height="26" as="geometry" />
        </mxCell>
        <mxCell id="gILt44JBYSnNEbUEAERU-27" value="&lt;font style=&quot;font-size: 16px;&quot;&gt;.&lt;/font&gt;" style="text;html=1;align=center;verticalAlign=middle;whiteSpace=wrap;rounded=0;" parent="1" vertex="1">
          <mxGeometry x="419" y="132" width="16" height="17" as="geometry" />
        </mxCell>
        <mxCell id="gILt44JBYSnNEbUEAERU-28" value="|" style="text;html=1;align=center;verticalAlign=middle;whiteSpace=wrap;rounded=0;" parent="1" vertex="1">
          <mxGeometry x="132" y="175" width="16" height="26" as="geometry" />
        </mxCell>
        <mxCell id="gILt44JBYSnNEbUEAERU-30" value=")" style="text;html=1;align=center;verticalAlign=middle;whiteSpace=wrap;rounded=0;" parent="1" vertex="1">
          <mxGeometry x="126" y="216" width="16" height="26" as="geometry" />
        </mxCell>
        <mxCell id="gILt44JBYSnNEbUEAERU-31" value="(" style="text;html=1;align=center;verticalAlign=middle;whiteSpace=wrap;rounded=0;" parent="1" vertex="1">
          <mxGeometry x="122.78" y="260" width="16" height="26" as="geometry" />
        </mxCell>
        <mxCell id="gILt44JBYSnNEbUEAERU-33" value="}" style="text;html=1;align=center;verticalAlign=middle;whiteSpace=wrap;rounded=0;" parent="1" vertex="1">
          <mxGeometry x="121" y="302" width="16" height="26" as="geometry" />
        </mxCell>
        <mxCell id="gILt44JBYSnNEbUEAERU-34" value="{" style="text;html=1;align=center;verticalAlign=middle;whiteSpace=wrap;rounded=0;" parent="1" vertex="1">
          <mxGeometry x="119" y="343" width="16" height="26" as="geometry" />
        </mxCell>
        <mxCell id="gILt44JBYSnNEbUEAERU-35" value="*" style="text;html=1;align=center;verticalAlign=middle;whiteSpace=wrap;rounded=0;" parent="1" vertex="1">
          <mxGeometry x="122" y="386" width="16" height="26" as="geometry" />
        </mxCell>
        <mxCell id="gILt44JBYSnNEbUEAERU-36" value="&amp;lt;" style="text;html=1;align=center;verticalAlign=middle;whiteSpace=wrap;rounded=0;" parent="1" vertex="1">
          <mxGeometry x="180" y="164" width="16" height="26" as="geometry" />
        </mxCell>
        <mxCell id="gILt44JBYSnNEbUEAERU-38" value="=" style="text;html=1;align=center;verticalAlign=middle;whiteSpace=wrap;rounded=0;" parent="1" vertex="1">
          <mxGeometry x="189" y="221.19" width="16" height="26" as="geometry" />
        </mxCell>
        <mxCell id="gILt44JBYSnNEbUEAERU-39" value="=" style="text;html=1;align=center;verticalAlign=middle;whiteSpace=wrap;rounded=0;" parent="1" vertex="1">
          <mxGeometry x="283" y="217.5" width="16" height="26" as="geometry" />
        </mxCell>
        <mxCell id="gILt44JBYSnNEbUEAERU-40" value="=" style="text;html=1;align=center;verticalAlign=middle;whiteSpace=wrap;rounded=0;" parent="1" vertex="1">
          <mxGeometry x="399" y="215.87" width="16" height="26" as="geometry" />
        </mxCell>
        <mxCell id="gILt44JBYSnNEbUEAERU-41" value="!" style="text;html=1;align=center;verticalAlign=middle;whiteSpace=wrap;rounded=0;" parent="1" vertex="1">
          <mxGeometry x="279" y="161" width="16" height="26" as="geometry" />
        </mxCell>
        <mxCell id="gILt44JBYSnNEbUEAERU-42" value="=" style="text;html=1;align=center;verticalAlign=middle;whiteSpace=wrap;rounded=0;" parent="1" vertex="1">
          <mxGeometry x="171" y="263" width="16" height="26" as="geometry" />
        </mxCell>
        <mxCell id="gILt44JBYSnNEbUEAERU-43" value="=" style="text;html=1;align=center;verticalAlign=middle;whiteSpace=wrap;rounded=0;" parent="1" vertex="1">
          <mxGeometry x="259" y="262" width="16" height="26" as="geometry" />
        </mxCell>
        <mxCell id="gILt44JBYSnNEbUEAERU-44" value="[" style="text;html=1;align=center;verticalAlign=middle;whiteSpace=wrap;rounded=0;" parent="1" vertex="1">
          <mxGeometry x="173" y="304" width="16" height="26" as="geometry" />
        </mxCell>
        <mxCell id="gILt44JBYSnNEbUEAERU-45" value="]" style="text;html=1;align=center;verticalAlign=middle;whiteSpace=wrap;rounded=0;" parent="1" vertex="1">
          <mxGeometry x="254" y="304" width="16" height="26" as="geometry" />
        </mxCell>
        <mxCell id="gILt44JBYSnNEbUEAERU-46" value="@" style="text;html=1;align=center;verticalAlign=middle;whiteSpace=wrap;rounded=0;" parent="1" vertex="1">
          <mxGeometry x="172" y="386" width="16" height="26" as="geometry" />
        </mxCell>
        <mxCell id="gILt44JBYSnNEbUEAERU-47" value="/" style="text;html=1;align=center;verticalAlign=middle;whiteSpace=wrap;rounded=0;" parent="1" vertex="1">
          <mxGeometry x="173" y="341.42" width="16" height="26" as="geometry" />
        </mxCell>
        <mxCell id="gILt44JBYSnNEbUEAERU-48" value="/" style="text;html=1;align=center;verticalAlign=middle;whiteSpace=wrap;rounded=0;" parent="1" vertex="1">
          <mxGeometry x="259" y="344" width="16" height="26" as="geometry" />
        </mxCell>
        <mxCell id="gILt44JBYSnNEbUEAERU-58" style="edgeStyle=orthogonalEdgeStyle;rounded=0;orthogonalLoop=1;jettySize=auto;html=1;exitX=0.255;exitY=0.94;exitDx=0;exitDy=0;entryX=0.09;entryY=0.121;entryDx=0;entryDy=0;entryPerimeter=0;exitPerimeter=0;" parent="1" source="sPX58Ci7Uv76JTCd5fkA-91" target="gILt44JBYSnNEbUEAERU-57" edge="1">
          <mxGeometry relative="1" as="geometry">
            <Array as="points">
              <mxPoint x="299" y="378" />
              <mxPoint x="299" y="418" />
            </Array>
          </mxGeometry>
        </mxCell>
        <mxCell id="gILt44JBYSnNEbUEAERU-49" value="\n" style="text;html=1;align=center;verticalAlign=middle;whiteSpace=wrap;rounded=0;rotation=0;" parent="1" vertex="1">
          <mxGeometry x="264.79" y="392" width="21.21" height="14" as="geometry" />
        </mxCell>
        <mxCell id="gILt44JBYSnNEbUEAERU-51" value="" style="group" parent="1" vertex="1" connectable="0">
          <mxGeometry x="509.39" y="545" width="71.83" height="37" as="geometry" />
        </mxCell>
        <mxCell id="gILt44JBYSnNEbUEAERU-52" value="" style="ellipse;whiteSpace=wrap;html=1;" parent="gILt44JBYSnNEbUEAERU-51" vertex="1">
          <mxGeometry width="71.83" height="37" as="geometry" />
        </mxCell>
        <mxCell id="gILt44JBYSnNEbUEAERU-53" value="underscore" style="ellipse;whiteSpace=wrap;html=1;spacing=2;" parent="gILt44JBYSnNEbUEAERU-51" vertex="1">
          <mxGeometry x="2.8353947368421064" y="2.522727272727273" width="66.15921052631579" height="31.95454545454546" as="geometry" />
        </mxCell>
        <mxCell id="gILt44JBYSnNEbUEAERU-54" value="" style="endArrow=classic;html=1;rounded=0;edgeStyle=orthogonalEdgeStyle;" parent="1" source="Dmafgiak7FkJHGfEmC2C-5" target="gILt44JBYSnNEbUEAERU-53" edge="1">
          <mxGeometry width="50" height="50" relative="1" as="geometry">
            <mxPoint x="459" y="488" as="sourcePoint" />
            <mxPoint x="509" y="438" as="targetPoint" />
            <Array as="points">
              <mxPoint x="382" y="564" />
              <mxPoint x="382" y="564" />
            </Array>
          </mxGeometry>
        </mxCell>
        <mxCell id="gILt44JBYSnNEbUEAERU-55" value="" style="group" parent="1" vertex="1" connectable="0">
          <mxGeometry x="335.0699999999999" y="412" width="46.93" height="29" as="geometry" />
        </mxCell>
        <mxCell id="gILt44JBYSnNEbUEAERU-56" value="" style="ellipse;whiteSpace=wrap;html=1;" parent="gILt44JBYSnNEbUEAERU-55" vertex="1">
          <mxGeometry width="46.93000000000001" height="29" as="geometry" />
        </mxCell>
        <mxCell id="gILt44JBYSnNEbUEAERU-57" value="end" style="ellipse;whiteSpace=wrap;html=1;spacing=2;" parent="gILt44JBYSnNEbUEAERU-55" vertex="1">
          <mxGeometry x="1.8525000000000003" y="1.977272727272727" width="43.224999999999994" height="25.04545454545455" as="geometry" />
        </mxCell>
        <mxCell id="gILt44JBYSnNEbUEAERU-59" value="" style="endArrow=classic;html=1;rounded=0;exitX=0.79;exitY=0.087;exitDx=0;exitDy=0;exitPerimeter=0;entryX=0.084;entryY=0.793;entryDx=0;entryDy=0;entryPerimeter=0;edgeStyle=orthogonalEdgeStyle;" parent="1" source="Dmafgiak7FkJHGfEmC2C-5" target="gILt44JBYSnNEbUEAERU-56" edge="1">
          <mxGeometry width="50" height="50" relative="1" as="geometry">
            <mxPoint x="391" y="525" as="sourcePoint" />
            <mxPoint x="441" y="475" as="targetPoint" />
            <Array as="points">
              <mxPoint x="323" y="455" />
            </Array>
          </mxGeometry>
        </mxCell>
        <mxCell id="gILt44JBYSnNEbUEAERU-60" value="const" style="text;html=1;align=center;verticalAlign=middle;whiteSpace=wrap;rounded=0;rotation=0;" parent="1" vertex="1">
          <mxGeometry x="522.7900000000001" y="109" width="21.21" height="14" as="geometry" />
        </mxCell>
        <mxCell id="gILt44JBYSnNEbUEAERU-61" value="EOF" style="text;html=1;align=center;verticalAlign=middle;whiteSpace=wrap;rounded=0;rotation=0;" parent="1" vertex="1">
          <mxGeometry x="297" y="439" width="21.21" height="14" as="geometry" />
        </mxCell>
        <mxCell id="gILt44JBYSnNEbUEAERU-62" value="" style="group" parent="1" vertex="1" connectable="0">
          <mxGeometry x="421.73" y="464" width="62" height="44" as="geometry" />
        </mxCell>
        <mxCell id="gILt44JBYSnNEbUEAERU-63" value="" style="ellipse;whiteSpace=wrap;html=1;" parent="gILt44JBYSnNEbUEAERU-62" vertex="1">
          <mxGeometry width="62.000000000000014" height="44" as="geometry" />
        </mxCell>
        <mxCell id="gILt44JBYSnNEbUEAERU-64" value="id" style="ellipse;whiteSpace=wrap;html=1;spacing=2;" parent="gILt44JBYSnNEbUEAERU-62" vertex="1">
          <mxGeometry x="2.447368421052632" y="3" width="57.10526315789474" height="38" as="geometry" />
        </mxCell>
        <mxCell id="gILt44JBYSnNEbUEAERU-67" value="" style="endArrow=classic;html=1;rounded=0;edgeStyle=orthogonalEdgeStyle;" parent="gILt44JBYSnNEbUEAERU-62" source="gILt44JBYSnNEbUEAERU-64" target="gILt44JBYSnNEbUEAERU-64" edge="1">
          <mxGeometry width="50" height="50" relative="1" as="geometry">
            <mxPoint x="-62" y="83" as="sourcePoint" />
            <mxPoint x="-12" y="33" as="targetPoint" />
            <Array as="points">
              <mxPoint x="9" y="-36" />
              <mxPoint x="37" y="-36" />
            </Array>
          </mxGeometry>
        </mxCell>
        <mxCell id="gILt44JBYSnNEbUEAERU-65" value="" style="endArrow=classic;html=1;rounded=0;edgeStyle=orthogonalEdgeStyle;" parent="1" source="gILt44JBYSnNEbUEAERU-53" target="gILt44JBYSnNEbUEAERU-64" edge="1">
          <mxGeometry width="50" height="50" relative="1" as="geometry">
            <mxPoint x="493" y="472" as="sourcePoint" />
            <mxPoint x="543" y="422" as="targetPoint" />
            <Array as="points">
              <mxPoint x="545" y="526" />
              <mxPoint x="453" y="526" />
            </Array>
          </mxGeometry>
        </mxCell>
        <mxCell id="gILt44JBYSnNEbUEAERU-66" value="" style="endArrow=classic;html=1;rounded=0;edgeStyle=orthogonalEdgeStyle;" parent="1" source="Dmafgiak7FkJHGfEmC2C-5" target="gILt44JBYSnNEbUEAERU-64" edge="1">
          <mxGeometry width="50" height="50" relative="1" as="geometry">
            <mxPoint x="493" y="472" as="sourcePoint" />
            <mxPoint x="543" y="422" as="targetPoint" />
            <Array as="points">
              <mxPoint x="382" y="503" />
              <mxPoint x="382" y="494" />
            </Array>
          </mxGeometry>
        </mxCell>
        <mxCell id="gILt44JBYSnNEbUEAERU-68" value="" style="group" parent="1" vertex="1" connectable="0">
          <mxGeometry x="725.25" y="239" width="61.49" height="38" as="geometry" />
        </mxCell>
        <mxCell id="gILt44JBYSnNEbUEAERU-69" value="" style="ellipse;whiteSpace=wrap;html=1;" parent="gILt44JBYSnNEbUEAERU-68" vertex="1">
          <mxGeometry width="61.49" height="38" as="geometry" />
        </mxCell>
        <mxCell id="gILt44JBYSnNEbUEAERU-70" value="_else" style="ellipse;whiteSpace=wrap;html=1;spacing=2;" parent="gILt44JBYSnNEbUEAERU-68" vertex="1">
          <mxGeometry x="2.4272368421052635" y="2.5909090909090904" width="56.63552631578947" height="32.81818181818181" as="geometry" />
        </mxCell>
        <mxCell id="gILt44JBYSnNEbUEAERU-71" value="" style="group" parent="1" vertex="1" connectable="0">
          <mxGeometry x="565" y="329" width="61.49" height="38" as="geometry" />
        </mxCell>
        <mxCell id="gILt44JBYSnNEbUEAERU-72" value="" style="ellipse;whiteSpace=wrap;html=1;" parent="gILt44JBYSnNEbUEAERU-71" vertex="1">
          <mxGeometry width="61.49" height="38" as="geometry" />
        </mxCell>
        <mxCell id="gILt44JBYSnNEbUEAERU-73" value="_if" style="ellipse;whiteSpace=wrap;html=1;spacing=2;" parent="gILt44JBYSnNEbUEAERU-71" vertex="1">
          <mxGeometry x="2.4272368421052635" y="2.5909090909090904" width="56.63552631578947" height="32.81818181818181" as="geometry" />
        </mxCell>
        <mxCell id="gILt44JBYSnNEbUEAERU-74" value="" style="group" parent="1" vertex="1" connectable="0">
          <mxGeometry x="725.25" y="194" width="61.49" height="38" as="geometry" />
        </mxCell>
        <mxCell id="gILt44JBYSnNEbUEAERU-75" value="" style="ellipse;whiteSpace=wrap;html=1;" parent="gILt44JBYSnNEbUEAERU-74" vertex="1">
          <mxGeometry width="61.49" height="38" as="geometry" />
        </mxCell>
        <mxCell id="gILt44JBYSnNEbUEAERU-76" value="_fn" style="ellipse;whiteSpace=wrap;html=1;spacing=2;" parent="gILt44JBYSnNEbUEAERU-74" vertex="1">
          <mxGeometry x="2.4272368421052635" y="2.5909090909090904" width="56.63552631578947" height="32.81818181818181" as="geometry" />
        </mxCell>
        <mxCell id="gILt44JBYSnNEbUEAERU-77" value="" style="group" parent="1" vertex="1" connectable="0">
          <mxGeometry x="725" y="417" width="61.49" height="38" as="geometry" />
        </mxCell>
        <mxCell id="gILt44JBYSnNEbUEAERU-78" value="" style="ellipse;whiteSpace=wrap;html=1;" parent="gILt44JBYSnNEbUEAERU-77" vertex="1">
          <mxGeometry width="61.49" height="38" as="geometry" />
        </mxCell>
        <mxCell id="gILt44JBYSnNEbUEAERU-79" value="dtflt" style="ellipse;whiteSpace=wrap;html=1;spacing=2;" parent="gILt44JBYSnNEbUEAERU-77" vertex="1">
          <mxGeometry x="2.4272368421052635" y="2.5909090909090904" width="56.63552631578947" height="32.81818181818181" as="geometry" />
        </mxCell>
        <mxCell id="gILt44JBYSnNEbUEAERU-80" value="" style="group" parent="1" vertex="1" connectable="0">
          <mxGeometry x="725.25" y="148.5" width="61.49" height="38" as="geometry" />
        </mxCell>
        <mxCell id="gILt44JBYSnNEbUEAERU-81" value="" style="ellipse;whiteSpace=wrap;html=1;" parent="gILt44JBYSnNEbUEAERU-80" vertex="1">
          <mxGeometry width="61.49" height="38" as="geometry" />
        </mxCell>
        <mxCell id="gILt44JBYSnNEbUEAERU-82" value="_pub" style="ellipse;whiteSpace=wrap;html=1;spacing=2;" parent="gILt44JBYSnNEbUEAERU-80" vertex="1">
          <mxGeometry x="2.4272368421052635" y="2.5909090909090904" width="56.63552631578947" height="32.81818181818181" as="geometry" />
        </mxCell>
        <mxCell id="gILt44JBYSnNEbUEAERU-83" value="" style="group" parent="1" vertex="1" connectable="0">
          <mxGeometry x="725" y="371.5" width="61.49" height="38" as="geometry" />
        </mxCell>
        <mxCell id="gILt44JBYSnNEbUEAERU-84" value="" style="ellipse;whiteSpace=wrap;html=1;" parent="gILt44JBYSnNEbUEAERU-83" vertex="1">
          <mxGeometry width="61.49" height="38" as="geometry" />
        </mxCell>
        <mxCell id="gILt44JBYSnNEbUEAERU-85" value="dtstr" style="ellipse;whiteSpace=wrap;html=1;spacing=2;" parent="gILt44JBYSnNEbUEAERU-83" vertex="1">
          <mxGeometry x="2.4272368421052635" y="2.5909090909090904" width="56.63552631578947" height="32.81818181818181" as="geometry" />
        </mxCell>
        <mxCell id="gILt44JBYSnNEbUEAERU-86" value="" style="group" parent="1" vertex="1" connectable="0">
          <mxGeometry x="725.25" y="103" width="61.49" height="38" as="geometry" />
        </mxCell>
        <mxCell id="gILt44JBYSnNEbUEAERU-87" value="" style="ellipse;whiteSpace=wrap;html=1;" parent="gILt44JBYSnNEbUEAERU-86" vertex="1">
          <mxGeometry width="61.49" height="38" as="geometry" />
        </mxCell>
        <mxCell id="gILt44JBYSnNEbUEAERU-88" value="variable" style="ellipse;whiteSpace=wrap;html=1;spacing=2;" parent="gILt44JBYSnNEbUEAERU-86" vertex="1">
          <mxGeometry x="2.4272368421052635" y="2.5909090909090904" width="56.63552631578947" height="32.81818181818181" as="geometry" />
        </mxCell>
        <mxCell id="gILt44JBYSnNEbUEAERU-89" value="" style="group" parent="1" vertex="1" connectable="0">
          <mxGeometry x="725" y="326" width="61.49" height="38" as="geometry" />
        </mxCell>
        <mxCell id="gILt44JBYSnNEbUEAERU-90" value="" style="ellipse;whiteSpace=wrap;html=1;" parent="gILt44JBYSnNEbUEAERU-89" vertex="1">
          <mxGeometry width="61.49" height="38" as="geometry" />
        </mxCell>
        <mxCell id="gILt44JBYSnNEbUEAERU-91" value="dtvoid" style="ellipse;whiteSpace=wrap;html=1;spacing=2;" parent="gILt44JBYSnNEbUEAERU-89" vertex="1">
          <mxGeometry x="2.4272368421052635" y="2.5909090909090904" width="56.63552631578947" height="32.81818181818181" as="geometry" />
        </mxCell>
        <mxCell id="gILt44JBYSnNEbUEAERU-92" value="" style="group" parent="1" vertex="1" connectable="0">
          <mxGeometry x="565" y="240" width="61.49" height="38" as="geometry" />
        </mxCell>
        <mxCell id="gILt44JBYSnNEbUEAERU-93" value="" style="ellipse;whiteSpace=wrap;html=1;" parent="gILt44JBYSnNEbUEAERU-92" vertex="1">
          <mxGeometry width="61.49" height="38" as="geometry" />
        </mxCell>
        <mxCell id="gILt44JBYSnNEbUEAERU-94" value="_while" style="ellipse;whiteSpace=wrap;html=1;spacing=2;" parent="gILt44JBYSnNEbUEAERU-92" vertex="1">
          <mxGeometry x="2.4272368421052635" y="2.5909090909090904" width="56.63552631578947" height="32.81818181818181" as="geometry" />
        </mxCell>
        <mxCell id="gILt44JBYSnNEbUEAERU-95" value="" style="group" parent="1" vertex="1" connectable="0">
          <mxGeometry x="565" y="197" width="61.49" height="38" as="geometry" />
        </mxCell>
        <mxCell id="gILt44JBYSnNEbUEAERU-96" value="" style="ellipse;whiteSpace=wrap;html=1;" parent="gILt44JBYSnNEbUEAERU-95" vertex="1">
          <mxGeometry width="61.49" height="38" as="geometry" />
        </mxCell>
        <mxCell id="gILt44JBYSnNEbUEAERU-97" value="_main" style="ellipse;whiteSpace=wrap;html=1;spacing=2;" parent="gILt44JBYSnNEbUEAERU-95" vertex="1">
          <mxGeometry x="2.4272368421052635" y="2.5909090909090904" width="56.63552631578947" height="32.81818181818181" as="geometry" />
        </mxCell>
        <mxCell id="gILt44JBYSnNEbUEAERU-98" value="" style="group" parent="1" vertex="1" connectable="0">
          <mxGeometry x="565" y="149.5" width="61.49" height="38" as="geometry" />
        </mxCell>
        <mxCell id="gILt44JBYSnNEbUEAERU-99" value="" style="ellipse;whiteSpace=wrap;html=1;" parent="gILt44JBYSnNEbUEAERU-98" vertex="1">
          <mxGeometry width="61.49" height="38" as="geometry" />
        </mxCell>
        <mxCell id="gILt44JBYSnNEbUEAERU-100" value="_return" style="ellipse;whiteSpace=wrap;html=1;spacing=2;" parent="gILt44JBYSnNEbUEAERU-98" vertex="1">
          <mxGeometry x="2.4272368421052635" y="2.5909090909090904" width="56.63552631578947" height="32.81818181818181" as="geometry" />
        </mxCell>
        <mxCell id="gILt44JBYSnNEbUEAERU-101" value="" style="group" parent="1" vertex="1" connectable="0">
          <mxGeometry x="565" y="104" width="61.49" height="38" as="geometry" />
        </mxCell>
        <mxCell id="gILt44JBYSnNEbUEAERU-102" value="" style="ellipse;whiteSpace=wrap;html=1;" parent="gILt44JBYSnNEbUEAERU-101" vertex="1">
          <mxGeometry width="61.49" height="38" as="geometry" />
        </mxCell>
        <mxCell id="gILt44JBYSnNEbUEAERU-103" value="constant" style="ellipse;whiteSpace=wrap;html=1;spacing=2;" parent="gILt44JBYSnNEbUEAERU-101" vertex="1">
          <mxGeometry x="2.4272368421052635" y="2.5909090909090904" width="56.63552631578947" height="32.81818181818181" as="geometry" />
        </mxCell>
        <mxCell id="gILt44JBYSnNEbUEAERU-104" value="" style="group" parent="1" vertex="1" connectable="0">
          <mxGeometry x="725.25" y="283" width="61.49" height="38" as="geometry" />
        </mxCell>
        <mxCell id="gILt44JBYSnNEbUEAERU-105" value="" style="ellipse;whiteSpace=wrap;html=1;" parent="gILt44JBYSnNEbUEAERU-104" vertex="1">
          <mxGeometry width="61.49" height="38" as="geometry" />
        </mxCell>
        <mxCell id="gILt44JBYSnNEbUEAERU-106" value="inbuild" style="ellipse;whiteSpace=wrap;html=1;spacing=2;" parent="gILt44JBYSnNEbUEAERU-104" vertex="1">
          <mxGeometry x="2.4272368421052635" y="2.5909090909090904" width="56.63552631578947" height="32.81818181818181" as="geometry" />
        </mxCell>
        <mxCell id="gILt44JBYSnNEbUEAERU-107" value="" style="group" parent="1" vertex="1" connectable="0">
          <mxGeometry x="565" y="376.13" width="61.49" height="38" as="geometry" />
        </mxCell>
        <mxCell id="gILt44JBYSnNEbUEAERU-108" value="" style="ellipse;whiteSpace=wrap;html=1;" parent="gILt44JBYSnNEbUEAERU-107" vertex="1">
          <mxGeometry width="61.49" height="38" as="geometry" />
        </mxCell>
        <mxCell id="gILt44JBYSnNEbUEAERU-109" value="_import" style="ellipse;whiteSpace=wrap;html=1;spacing=2;" parent="gILt44JBYSnNEbUEAERU-107" vertex="1">
          <mxGeometry x="2.4272368421052635" y="2.5909090909090904" width="56.63552631578947" height="32.81818181818181" as="geometry" />
        </mxCell>
        <mxCell id="gILt44JBYSnNEbUEAERU-110" value="" style="group" parent="1" vertex="1" connectable="0">
          <mxGeometry x="565" y="284" width="61.49" height="38" as="geometry" />
        </mxCell>
        <mxCell id="gILt44JBYSnNEbUEAERU-111" value="" style="ellipse;whiteSpace=wrap;html=1;" parent="gILt44JBYSnNEbUEAERU-110" vertex="1">
          <mxGeometry width="61.49" height="38" as="geometry" />
        </mxCell>
        <mxCell id="gILt44JBYSnNEbUEAERU-112" value="dtint" style="ellipse;whiteSpace=wrap;html=1;spacing=2;" parent="gILt44JBYSnNEbUEAERU-110" vertex="1">
          <mxGeometry x="2.4272368421052635" y="2.5909090909090904" width="56.63552631578947" height="32.81818181818181" as="geometry" />
        </mxCell>
        <mxCell id="gILt44JBYSnNEbUEAERU-113" value="" style="group" parent="1" vertex="1" connectable="0">
          <mxGeometry x="565" y="421.13" width="61.49" height="38" as="geometry" />
        </mxCell>
        <mxCell id="gILt44JBYSnNEbUEAERU-114" value="" style="ellipse;whiteSpace=wrap;html=1;" parent="gILt44JBYSnNEbUEAERU-113" vertex="1">
          <mxGeometry width="61.49" height="38" as="geometry" />
        </mxCell>
        <mxCell id="gILt44JBYSnNEbUEAERU-115" value="_null" style="ellipse;whiteSpace=wrap;html=1;spacing=2;" parent="gILt44JBYSnNEbUEAERU-113" vertex="1">
          <mxGeometry x="2.4272368421052635" y="2.5909090909090904" width="56.63552631578947" height="32.81818181818181" as="geometry" />
        </mxCell>
        <mxCell id="gILt44JBYSnNEbUEAERU-116" value="" style="group" parent="1" vertex="1" connectable="0">
          <mxGeometry x="46" y="702.83" width="62" height="44" as="geometry" />
        </mxCell>
        <mxCell id="gILt44JBYSnNEbUEAERU-117" value="" style="ellipse;whiteSpace=wrap;html=1;" parent="gILt44JBYSnNEbUEAERU-116" vertex="1">
          <mxGeometry width="62.000000000000014" height="44" as="geometry" />
        </mxCell>
        <mxCell id="gILt44JBYSnNEbUEAERU-118" value="num" style="ellipse;whiteSpace=wrap;html=1;spacing=2;" parent="gILt44JBYSnNEbUEAERU-116" vertex="1">
          <mxGeometry x="2.447368421052632" y="3" width="57.10526315789474" height="38" as="geometry" />
        </mxCell>
        <mxCell id="gILt44JBYSnNEbUEAERU-120" value="" style="endArrow=classic;html=1;rounded=0;edgeStyle=orthogonalEdgeStyle;" parent="1" source="Dmafgiak7FkJHGfEmC2C-5" target="gILt44JBYSnNEbUEAERU-118" edge="1">
          <mxGeometry width="50" height="50" relative="1" as="geometry">
            <mxPoint x="144.47399999999993" y="739.0159999999998" as="sourcePoint" />
            <mxPoint x="538" y="627" as="targetPoint" />
            <Array as="points">
              <mxPoint x="157" y="679" />
              <mxPoint x="92" y="679" />
            </Array>
          </mxGeometry>
        </mxCell>
        <mxCell id="gILt44JBYSnNEbUEAERU-121" value="LEXEM" style="ellipse;whiteSpace=wrap;html=1;" parent="1" vertex="1">
          <mxGeometry x="31" y="604" width="53.73" height="32.83" as="geometry" />
        </mxCell>
        <mxCell id="gILt44JBYSnNEbUEAERU-124" value="" style="endArrow=classic;html=1;rounded=0;edgeStyle=orthogonalEdgeStyle;" parent="1" source="gILt44JBYSnNEbUEAERU-118" target="gILt44JBYSnNEbUEAERU-121" edge="1">
          <mxGeometry width="50" height="50" relative="1" as="geometry">
            <mxPoint x="306" y="745" as="sourcePoint" />
            <mxPoint x="356" y="695" as="targetPoint" />
          </mxGeometry>
        </mxCell>
        <mxCell id="gILt44JBYSnNEbUEAERU-125" value="" style="group" parent="1" vertex="1" connectable="0">
          <mxGeometry x="174.84" y="710" width="62" height="44" as="geometry" />
        </mxCell>
        <mxCell id="gILt44JBYSnNEbUEAERU-126" value="" style="ellipse;whiteSpace=wrap;html=1;" parent="gILt44JBYSnNEbUEAERU-125" vertex="1">
          <mxGeometry width="62.000000000000014" height="44" as="geometry" />
        </mxCell>
        <mxCell id="gILt44JBYSnNEbUEAERU-127" value="num" style="ellipse;whiteSpace=wrap;html=1;spacing=2;" parent="gILt44JBYSnNEbUEAERU-125" vertex="1">
          <mxGeometry x="2.447368421052632" y="3" width="57.10526315789474" height="38" as="geometry" />
        </mxCell>
        <mxCell id="gILt44JBYSnNEbUEAERU-131" value="" style="endArrow=classic;html=1;rounded=0;edgeStyle=orthogonalEdgeStyle;" parent="gILt44JBYSnNEbUEAERU-125" source="gILt44JBYSnNEbUEAERU-127" target="gILt44JBYSnNEbUEAERU-127" edge="1">
          <mxGeometry width="50" height="50" relative="1" as="geometry">
            <mxPoint x="-63.900000000000006" y="105" as="sourcePoint" />
            <mxPoint x="-1.90925628504138" y="13.60661163217219" as="targetPoint" />
            <Array as="points">
              <mxPoint x="97" y="34" />
              <mxPoint x="97" y="14" />
            </Array>
          </mxGeometry>
        </mxCell>
        <mxCell id="gILt44JBYSnNEbUEAERU-128" value="" style="endArrow=classic;html=1;rounded=0;edgeStyle=orthogonalEdgeStyle;" parent="1" source="Dmafgiak7FkJHGfEmC2C-5" target="gILt44JBYSnNEbUEAERU-127" edge="1">
          <mxGeometry width="50" height="50" relative="1" as="geometry">
            <mxPoint x="178.76" y="762.452" as="sourcePoint" />
            <mxPoint x="356" y="798" as="targetPoint" />
          </mxGeometry>
        </mxCell>
        <mxCell id="gILt44JBYSnNEbUEAERU-129" value="" style="endArrow=classic;html=1;rounded=0;edgeStyle=orthogonalEdgeStyle;" parent="1" source="gILt44JBYSnNEbUEAERU-118" target="gILt44JBYSnNEbUEAERU-132" edge="1">
          <mxGeometry width="50" height="50" relative="1" as="geometry">
            <mxPoint x="306" y="883" as="sourcePoint" />
            <mxPoint x="58" y="904" as="targetPoint" />
            <Array as="points">
              <mxPoint x="72" y="799" />
              <mxPoint x="72" y="799" />
            </Array>
          </mxGeometry>
        </mxCell>
        <mxCell id="gILt44JBYSnNEbUEAERU-132" value="tečka" style="ellipse;whiteSpace=wrap;html=1;" parent="1" vertex="1">
          <mxGeometry x="37.64" y="851" width="53.73" height="32.83" as="geometry" />
        </mxCell>
        <mxCell id="gILt44JBYSnNEbUEAERU-133" value="" style="endArrow=classic;html=1;rounded=0;edgeStyle=orthogonalEdgeStyle;" parent="1" source="gILt44JBYSnNEbUEAERU-127" target="gILt44JBYSnNEbUEAERU-132" edge="1">
          <mxGeometry width="50" height="50" relative="1" as="geometry">
            <mxPoint x="244" y="900" as="sourcePoint" />
            <mxPoint x="294" y="850" as="targetPoint" />
            <Array as="points">
              <mxPoint x="181" y="778" />
              <mxPoint x="72" y="778" />
            </Array>
          </mxGeometry>
        </mxCell>
        <mxCell id="gILt44JBYSnNEbUEAERU-134" value="" style="group" parent="1" vertex="1" connectable="0">
          <mxGeometry x="69" y="995.4200000000001" width="62" height="44" as="geometry" />
        </mxCell>
        <mxCell id="gILt44JBYSnNEbUEAERU-135" value="" style="ellipse;whiteSpace=wrap;html=1;" parent="gILt44JBYSnNEbUEAERU-134" vertex="1">
          <mxGeometry width="62.000000000000014" height="44" as="geometry" />
        </mxCell>
        <mxCell id="gILt44JBYSnNEbUEAERU-136" value="decim" style="ellipse;whiteSpace=wrap;html=1;spacing=2;" parent="gILt44JBYSnNEbUEAERU-134" vertex="1">
          <mxGeometry x="2.447368421052632" y="3" width="57.10526315789474" height="38" as="geometry" />
        </mxCell>
        <mxCell id="gILt44JBYSnNEbUEAERU-139" value="" style="endArrow=classic;html=1;rounded=0;edgeStyle=orthogonalEdgeStyle;entryX=0.392;entryY=1.013;entryDx=0;entryDy=0;entryPerimeter=0;exitX=0.014;exitY=0.636;exitDx=0;exitDy=0;exitPerimeter=0;" parent="gILt44JBYSnNEbUEAERU-134" source="gILt44JBYSnNEbUEAERU-135" target="gILt44JBYSnNEbUEAERU-135" edge="1">
          <mxGeometry width="50" height="50" relative="1" as="geometry">
            <mxPoint x="4" y="101" as="sourcePoint" />
            <mxPoint x="14" y="73" as="targetPoint" />
            <Array as="points">
              <mxPoint x="-26" y="28" />
              <mxPoint x="-26" y="70" />
              <mxPoint x="24" y="70" />
            </Array>
          </mxGeometry>
        </mxCell>
        <mxCell id="gILt44JBYSnNEbUEAERU-137" value="" style="endArrow=classic;html=1;rounded=0;edgeStyle=orthogonalEdgeStyle;" parent="1" source="gILt44JBYSnNEbUEAERU-132" target="gILt44JBYSnNEbUEAERU-136" edge="1">
          <mxGeometry width="50" height="50" relative="1" as="geometry">
            <mxPoint x="244" y="900" as="sourcePoint" />
            <mxPoint x="294" y="850" as="targetPoint" />
          </mxGeometry>
        </mxCell>
        <mxCell id="gILt44JBYSnNEbUEAERU-138" value="&quot;ostatní&quot;" style="text;html=1;align=center;verticalAlign=middle;whiteSpace=wrap;rounded=0;rotation=0;" parent="1" vertex="1">
          <mxGeometry x="355.43" y="350" width="21.21" height="14" as="geometry" />
        </mxCell>
        <mxCell id="gILt44JBYSnNEbUEAERU-140" value="exponent" style="ellipse;whiteSpace=wrap;html=1;" parent="1" vertex="1">
          <mxGeometry x="132.00000000000003" y="874.9999999999999" width="63.73" height="32.83" as="geometry" />
        </mxCell>
        <mxCell id="gILt44JBYSnNEbUEAERU-141" value="" style="endArrow=classic;html=1;rounded=0;edgeStyle=orthogonalEdgeStyle;" parent="1" source="gILt44JBYSnNEbUEAERU-127" target="gILt44JBYSnNEbUEAERU-140" edge="1">
          <mxGeometry width="50" height="50" relative="1" as="geometry">
            <mxPoint x="189" y="867" as="sourcePoint" />
            <mxPoint x="119" y="962" as="targetPoint" />
          </mxGeometry>
        </mxCell>
        <mxCell id="gILt44JBYSnNEbUEAERU-143" value="" style="endArrow=classic;html=1;rounded=0;edgeStyle=orthogonalEdgeStyle;" parent="1" source="gILt44JBYSnNEbUEAERU-136" target="gILt44JBYSnNEbUEAERU-140" edge="1">
          <mxGeometry width="50" height="50" relative="1" as="geometry">
            <mxPoint x="149" y="952" as="sourcePoint" />
            <mxPoint x="79" y="1047" as="targetPoint" />
            <Array as="points">
              <mxPoint x="126" y="961" />
              <mxPoint x="157" y="961" />
            </Array>
          </mxGeometry>
        </mxCell>
        <mxCell id="gILt44JBYSnNEbUEAERU-144" value="pól" style="ellipse;whiteSpace=wrap;html=1;" parent="1" vertex="1">
          <mxGeometry x="245.26999999999998" y="845" width="53.73" height="32.83" as="geometry" />
        </mxCell>
        <mxCell id="gILt44JBYSnNEbUEAERU-145" value="" style="group" parent="1" vertex="1" connectable="0">
          <mxGeometry x="196.00000000000003" y="995.17" width="62" height="44" as="geometry" />
        </mxCell>
        <mxCell id="gILt44JBYSnNEbUEAERU-146" value="" style="ellipse;whiteSpace=wrap;html=1;" parent="gILt44JBYSnNEbUEAERU-145" vertex="1">
          <mxGeometry width="62.000000000000014" height="44" as="geometry" />
        </mxCell>
        <mxCell id="gILt44JBYSnNEbUEAERU-147" value="decim" style="ellipse;whiteSpace=wrap;html=1;spacing=2;" parent="gILt44JBYSnNEbUEAERU-145" vertex="1">
          <mxGeometry x="2.447368421052632" y="3" width="57.10526315789474" height="38" as="geometry" />
        </mxCell>
        <mxCell id="gILt44JBYSnNEbUEAERU-148" value="" style="endArrow=classic;html=1;rounded=0;edgeStyle=orthogonalEdgeStyle;" parent="gILt44JBYSnNEbUEAERU-145" source="gILt44JBYSnNEbUEAERU-147" target="gILt44JBYSnNEbUEAERU-147" edge="1">
          <mxGeometry width="50" height="50" relative="1" as="geometry">
            <mxPoint x="4" y="101" as="sourcePoint" />
            <mxPoint x="14" y="73" as="targetPoint" />
            <Array as="points">
              <mxPoint x="-26" y="28" />
              <mxPoint x="-26" y="70" />
              <mxPoint x="24" y="70" />
            </Array>
          </mxGeometry>
        </mxCell>
        <mxCell id="gILt44JBYSnNEbUEAERU-149" value="" style="endArrow=classic;html=1;rounded=0;edgeStyle=orthogonalEdgeStyle;" parent="1" source="gILt44JBYSnNEbUEAERU-144" target="gILt44JBYSnNEbUEAERU-147" edge="1">
          <mxGeometry width="50" height="50" relative="1" as="geometry">
            <mxPoint x="293" y="845" as="sourcePoint" />
            <mxPoint x="300" y="884" as="targetPoint" />
            <Array as="points">
              <mxPoint x="270" y="940" />
              <mxPoint x="223" y="940" />
            </Array>
          </mxGeometry>
        </mxCell>
        <mxCell id="gILt44JBYSnNEbUEAERU-151" value="" style="endArrow=classic;html=1;rounded=0;edgeStyle=orthogonalEdgeStyle;" parent="1" source="gILt44JBYSnNEbUEAERU-140" target="gILt44JBYSnNEbUEAERU-144" edge="1">
          <mxGeometry width="50" height="50" relative="1" as="geometry">
            <mxPoint x="245" y="866" as="sourcePoint" />
            <mxPoint x="275" y="907" as="targetPoint" />
            <Array as="points">
              <mxPoint x="215" y="891" />
              <mxPoint x="215" y="861" />
            </Array>
          </mxGeometry>
        </mxCell>
        <mxCell id="gILt44JBYSnNEbUEAERU-152" value="" style="endArrow=classic;html=1;rounded=0;edgeStyle=orthogonalEdgeStyle;" parent="1" source="gILt44JBYSnNEbUEAERU-140" target="gILt44JBYSnNEbUEAERU-147" edge="1">
          <mxGeometry width="50" height="50" relative="1" as="geometry">
            <mxPoint x="209.93" y="846" as="sourcePoint" />
            <mxPoint x="239.93" y="887" as="targetPoint" />
            <Array as="points">
              <mxPoint x="176" y="940" />
              <mxPoint x="223" y="940" />
            </Array>
          </mxGeometry>
        </mxCell>
        <mxCell id="uuY7PIFbNGFS6GhnLK3d-1" value="obsah" style="ellipse;whiteSpace=wrap;html=1;" parent="1" vertex="1">
          <mxGeometry x="412" y="943" width="53.73" height="32.83" as="geometry" />
        </mxCell>
        <mxCell id="uuY7PIFbNGFS6GhnLK3d-2" value="" style="endArrow=classic;html=1;rounded=0;edgeStyle=orthogonalEdgeStyle;exitX=0.747;exitY=0.926;exitDx=0;exitDy=0;exitPerimeter=0;" parent="1" source="Dmafgiak7FkJHGfEmC2C-5" target="uuY7PIFbNGFS6GhnLK3d-1" edge="1">
          <mxGeometry width="50" height="50" relative="1" as="geometry">
            <mxPoint x="281.69897844179127" y="775.2528291888067" as="sourcePoint" />
            <mxPoint x="442" y="792.58" as="targetPoint" />
            <Array as="points">
              <mxPoint x="326" y="637" />
              <mxPoint x="326" y="754" />
              <mxPoint x="451" y="754" />
            </Array>
          </mxGeometry>
        </mxCell>
        <mxCell id="uuY7PIFbNGFS6GhnLK3d-3" value="" style="endArrow=classic;html=1;rounded=0;edgeStyle=orthogonalEdgeStyle;" parent="1" source="uuY7PIFbNGFS6GhnLK3d-1" target="uuY7PIFbNGFS6GhnLK3d-1" edge="1">
          <mxGeometry width="50" height="50" relative="1" as="geometry">
            <mxPoint x="472.73" y="869" as="sourcePoint" />
            <mxPoint x="659.73" y="756" as="targetPoint" />
            <Array as="points">
              <mxPoint x="353" y="953" />
              <mxPoint x="353" y="971" />
            </Array>
          </mxGeometry>
        </mxCell>
        <mxCell id="uuY7PIFbNGFS6GhnLK3d-5" value="" style="group" parent="1" vertex="1" connectable="0">
          <mxGeometry x="343.00000000000006" y="1045" width="62" height="44" as="geometry" />
        </mxCell>
        <mxCell id="uuY7PIFbNGFS6GhnLK3d-6" value="" style="ellipse;whiteSpace=wrap;html=1;" parent="uuY7PIFbNGFS6GhnLK3d-5" vertex="1">
          <mxGeometry width="62.000000000000014" height="44" as="geometry" />
        </mxCell>
        <mxCell id="uuY7PIFbNGFS6GhnLK3d-7" value="text" style="ellipse;whiteSpace=wrap;html=1;spacing=2;" parent="uuY7PIFbNGFS6GhnLK3d-5" vertex="1">
          <mxGeometry x="2.447368421052632" y="3" width="57.10526315789474" height="38" as="geometry" />
        </mxCell>
        <mxCell id="uuY7PIFbNGFS6GhnLK3d-8" value="LEXEM" style="ellipse;whiteSpace=wrap;html=1;" parent="1" vertex="1">
          <mxGeometry x="345.27000000000004" y="853.1700000000001" width="53.73" height="32.83" as="geometry" />
        </mxCell>
        <mxCell id="uuY7PIFbNGFS6GhnLK3d-9" value="" style="endArrow=classic;html=1;rounded=0;edgeStyle=orthogonalEdgeStyle;" parent="1" source="uuY7PIFbNGFS6GhnLK3d-1" target="uuY7PIFbNGFS6GhnLK3d-8" edge="1">
          <mxGeometry width="50" height="50" relative="1" as="geometry">
            <mxPoint x="472.73" y="779" as="sourcePoint" />
            <mxPoint x="522.73" y="729" as="targetPoint" />
            <Array as="points">
              <mxPoint x="427" y="906" />
              <mxPoint x="372" y="906" />
            </Array>
          </mxGeometry>
        </mxCell>
        <mxCell id="uuY7PIFbNGFS6GhnLK3d-10" value="" style="endArrow=classic;html=1;rounded=0;edgeStyle=orthogonalEdgeStyle;" parent="1" source="uuY7PIFbNGFS6GhnLK3d-1" target="uuY7PIFbNGFS6GhnLK3d-7" edge="1">
          <mxGeometry width="50" height="50" relative="1" as="geometry">
            <mxPoint x="457.73" y="956" as="sourcePoint" />
            <mxPoint x="507.73" y="906" as="targetPoint" />
            <Array as="points">
              <mxPoint x="429" y="1014" />
              <mxPoint x="393" y="1014" />
            </Array>
          </mxGeometry>
        </mxCell>
        <mxCell id="uuY7PIFbNGFS6GhnLK3d-11" value="escape" style="ellipse;whiteSpace=wrap;html=1;" parent="1" vertex="1">
          <mxGeometry x="544" y="883.83" width="53.73" height="32.83" as="geometry" />
        </mxCell>
        <mxCell id="uuY7PIFbNGFS6GhnLK3d-14" value="hexa" style="ellipse;whiteSpace=wrap;html=1;" parent="1" vertex="1">
          <mxGeometry x="668.8100000000001" y="936.1699999999998" width="53.73" height="32.83" as="geometry" />
        </mxCell>
        <mxCell id="uuY7PIFbNGFS6GhnLK3d-15" value="" style="endArrow=classic;html=1;rounded=0;edgeStyle=orthogonalEdgeStyle;" parent="1" source="uuY7PIFbNGFS6GhnLK3d-11" target="uuY7PIFbNGFS6GhnLK3d-14" edge="1">
          <mxGeometry width="50" height="50" relative="1" as="geometry">
            <mxPoint x="342.73" y="943" as="sourcePoint" />
            <mxPoint x="392.73" y="893" as="targetPoint" />
            <Array as="points">
              <mxPoint x="640" y="899" />
              <mxPoint x="640" y="953" />
            </Array>
          </mxGeometry>
        </mxCell>
        <mxCell id="uuY7PIFbNGFS6GhnLK3d-19" value="druhý" style="ellipse;whiteSpace=wrap;html=1;" parent="1" vertex="1">
          <mxGeometry x="534.7" y="1039.17" width="53.73" height="32.83" as="geometry" />
        </mxCell>
        <mxCell id="uuY7PIFbNGFS6GhnLK3d-23" value="" style="endArrow=classic;html=1;rounded=0;edgeStyle=orthogonalEdgeStyle;" parent="1" source="uuY7PIFbNGFS6GhnLK3d-19" target="uuY7PIFbNGFS6GhnLK3d-1" edge="1">
          <mxGeometry width="50" height="50" relative="1" as="geometry">
            <mxPoint x="494.73" y="975" as="sourcePoint" />
            <mxPoint x="392.73" y="893" as="targetPoint" />
            <Array as="points">
              <mxPoint x="441" y="1054" />
            </Array>
          </mxGeometry>
        </mxCell>
        <mxCell id="uuY7PIFbNGFS6GhnLK3d-24" value="" style="endArrow=classic;html=1;rounded=0;edgeStyle=orthogonalEdgeStyle;" parent="1" source="uuY7PIFbNGFS6GhnLK3d-14" target="uuY7PIFbNGFS6GhnLK3d-19" edge="1">
          <mxGeometry width="50" height="50" relative="1" as="geometry">
            <mxPoint x="640.865" y="1042.83" as="sourcePoint" />
            <mxPoint x="392.73" y="893" as="targetPoint" />
            <Array as="points">
              <mxPoint x="744" y="953" />
              <mxPoint x="744" y="1061" />
            </Array>
          </mxGeometry>
        </mxCell>
        <mxCell id="uuY7PIFbNGFS6GhnLK3d-26" value="lomítko" style="ellipse;whiteSpace=wrap;html=1;" parent="1" vertex="1">
          <mxGeometry x="389.13999999999993" y="624.9999999999999" width="53.73" height="32.83" as="geometry" />
        </mxCell>
        <mxCell id="uuY7PIFbNGFS6GhnLK3d-28" value="obsah" style="ellipse;whiteSpace=wrap;html=1;" parent="1" vertex="1">
          <mxGeometry x="547.2099999999999" y="629" width="53.73" height="32.83" as="geometry" />
        </mxCell>
        <mxCell id="uuY7PIFbNGFS6GhnLK3d-29" value="" style="endArrow=classic;html=1;rounded=0;edgeStyle=orthogonalEdgeStyle;" parent="1" source="uuY7PIFbNGFS6GhnLK3d-26" target="uuY7PIFbNGFS6GhnLK3d-28" edge="1">
          <mxGeometry width="50" height="50" relative="1" as="geometry">
            <mxPoint x="595.47" y="697.17" as="sourcePoint" />
            <mxPoint x="755.47" y="714.17" as="targetPoint" />
            <Array as="points">
              <mxPoint x="439" y="639" />
            </Array>
          </mxGeometry>
        </mxCell>
        <mxCell id="uuY7PIFbNGFS6GhnLK3d-30" value="" style="endArrow=classic;html=1;rounded=0;edgeStyle=orthogonalEdgeStyle;" parent="1" source="uuY7PIFbNGFS6GhnLK3d-28" target="uuY7PIFbNGFS6GhnLK3d-28" edge="1">
          <mxGeometry width="50" height="50" relative="1" as="geometry">
            <mxPoint x="661.46" y="686" as="sourcePoint" />
            <mxPoint x="848.46" y="573" as="targetPoint" />
            <Array as="points">
              <mxPoint x="532" y="657" />
              <mxPoint x="532" y="699" />
              <mxPoint x="582" y="699" />
            </Array>
          </mxGeometry>
        </mxCell>
        <mxCell id="uuY7PIFbNGFS6GhnLK3d-31" value="" style="group" parent="1" vertex="1" connectable="0">
          <mxGeometry x="711.2100000000002" y="664" width="62" height="44" as="geometry" />
        </mxCell>
        <mxCell id="uuY7PIFbNGFS6GhnLK3d-32" value="" style="ellipse;whiteSpace=wrap;html=1;" parent="uuY7PIFbNGFS6GhnLK3d-31" vertex="1">
          <mxGeometry width="62.000000000000014" height="44" as="geometry" />
        </mxCell>
        <mxCell id="uuY7PIFbNGFS6GhnLK3d-33" value="text" style="ellipse;whiteSpace=wrap;html=1;spacing=2;" parent="uuY7PIFbNGFS6GhnLK3d-31" vertex="1">
          <mxGeometry x="2.447368421052632" y="3" width="57.10526315789474" height="38" as="geometry" />
        </mxCell>
        <mxCell id="uuY7PIFbNGFS6GhnLK3d-89" value="" style="endArrow=classic;html=1;rounded=0;edgeStyle=orthogonalEdgeStyle;" parent="uuY7PIFbNGFS6GhnLK3d-31" source="uuY7PIFbNGFS6GhnLK3d-33" target="uuY7PIFbNGFS6GhnLK3d-33" edge="1">
          <mxGeometry width="50" height="50" relative="1" as="geometry">
            <mxPoint x="-61" y="-23" as="sourcePoint" />
            <mxPoint x="-128" y="-43" as="targetPoint" />
            <Array as="points">
              <mxPoint x="57" y="-43" />
              <mxPoint x="6" y="-43" />
            </Array>
          </mxGeometry>
        </mxCell>
        <mxCell id="uuY7PIFbNGFS6GhnLK3d-36" value="" style="endArrow=classic;html=1;rounded=0;edgeStyle=orthogonalEdgeStyle;" parent="1" source="uuY7PIFbNGFS6GhnLK3d-28" target="uuY7PIFbNGFS6GhnLK3d-33" edge="1">
          <mxGeometry width="50" height="50" relative="1" as="geometry">
            <mxPoint x="646.46" y="773" as="sourcePoint" />
            <mxPoint x="696.46" y="723" as="targetPoint" />
            <Array as="points">
              <mxPoint x="630" y="644" />
              <mxPoint x="630" y="686" />
            </Array>
          </mxGeometry>
        </mxCell>
        <mxCell id="uuY7PIFbNGFS6GhnLK3d-52" value="" style="endArrow=classic;html=1;rounded=0;edgeStyle=orthogonalEdgeStyle;" parent="1" source="Dmafgiak7FkJHGfEmC2C-5" target="uuY7PIFbNGFS6GhnLK3d-26" edge="1">
          <mxGeometry width="50" height="50" relative="1" as="geometry">
            <mxPoint x="381.9979134038201" y="643.4684205866835" as="sourcePoint" />
            <mxPoint x="469.01" y="706.17" as="targetPoint" />
            <Array as="points">
              <mxPoint x="365" y="593" />
              <mxPoint x="365" y="641" />
            </Array>
          </mxGeometry>
        </mxCell>
        <mxCell id="uuY7PIFbNGFS6GhnLK3d-71" value="\n" style="text;html=1;align=center;verticalAlign=middle;whiteSpace=wrap;rounded=0;rotation=0;" parent="1" vertex="1">
          <mxGeometry x="607.75" y="622.83" width="21.21" height="14" as="geometry" />
        </mxCell>
        <mxCell id="uuY7PIFbNGFS6GhnLK3d-87" value="EOF,\n" style="text;html=1;align=center;verticalAlign=middle;whiteSpace=wrap;rounded=0;rotation=0;" parent="1" vertex="1">
          <mxGeometry x="377.79" y="907.83" width="41.21" height="14" as="geometry" />
        </mxCell>
        <mxCell id="uuY7PIFbNGFS6GhnLK3d-90" value="" style="endArrow=classic;html=1;rounded=0;edgeStyle=orthogonalEdgeStyle;" parent="1" source="uuY7PIFbNGFS6GhnLK3d-33" target="uuY7PIFbNGFS6GhnLK3d-26" edge="1">
          <mxGeometry width="50" height="50" relative="1" as="geometry">
            <mxPoint x="375" y="727" as="sourcePoint" />
            <mxPoint x="425" y="677" as="targetPoint" />
            <Array as="points">
              <mxPoint x="560" y="794" />
              <mxPoint x="560" y="733" />
              <mxPoint x="506" y="733" />
              <mxPoint x="506" y="680" />
              <mxPoint x="420" y="680" />
            </Array>
          </mxGeometry>
        </mxCell>
        <mxCell id="uuY7PIFbNGFS6GhnLK3d-91" value="" style="endArrow=classic;html=1;rounded=0;edgeStyle=orthogonalEdgeStyle;" parent="1" source="gILt44JBYSnNEbUEAERU-64" target="gILt44JBYSnNEbUEAERU-79" edge="1">
          <mxGeometry width="50" height="50" relative="1" as="geometry">
            <mxPoint x="443.7" y="382" as="sourcePoint" />
            <mxPoint x="493.7" y="332" as="targetPoint" />
            <Array as="points">
              <mxPoint x="490" y="474" />
              <mxPoint x="490" y="93" />
              <mxPoint x="663" y="93" />
              <mxPoint x="663" y="436" />
            </Array>
          </mxGeometry>
        </mxCell>
        <mxCell id="uuY7PIFbNGFS6GhnLK3d-93" value="" style="endArrow=classic;html=1;rounded=0;edgeStyle=orthogonalEdgeStyle;" parent="1" target="gILt44JBYSnNEbUEAERU-100" edge="1">
          <mxGeometry width="50" height="50" relative="1" as="geometry">
            <mxPoint x="491" y="167" as="sourcePoint" />
            <mxPoint x="569" y="121" as="targetPoint" />
            <Array as="points">
              <mxPoint x="491" y="168" />
            </Array>
          </mxGeometry>
        </mxCell>
        <mxCell id="uuY7PIFbNGFS6GhnLK3d-94" value="" style="endArrow=classic;html=1;rounded=0;edgeStyle=orthogonalEdgeStyle;" parent="1" edge="1">
          <mxGeometry width="50" height="50" relative="1" as="geometry">
            <mxPoint x="489" y="214.87" as="sourcePoint" />
            <mxPoint x="565" y="215.87" as="targetPoint" />
            <Array as="points">
              <mxPoint x="489" y="215.87" />
            </Array>
          </mxGeometry>
        </mxCell>
        <mxCell id="uuY7PIFbNGFS6GhnLK3d-95" value="" style="endArrow=classic;html=1;rounded=0;edgeStyle=orthogonalEdgeStyle;" parent="1" edge="1">
          <mxGeometry width="50" height="50" relative="1" as="geometry">
            <mxPoint x="488.97" y="257.5" as="sourcePoint" />
            <mxPoint x="564.97" y="258.5" as="targetPoint" />
            <Array as="points">
              <mxPoint x="488.97" y="258.5" />
            </Array>
          </mxGeometry>
        </mxCell>
        <mxCell id="uuY7PIFbNGFS6GhnLK3d-96" value="" style="endArrow=classic;html=1;rounded=0;edgeStyle=orthogonalEdgeStyle;" parent="1" edge="1">
          <mxGeometry width="50" height="50" relative="1" as="geometry">
            <mxPoint x="491.04" y="303" as="sourcePoint" />
            <mxPoint x="567.04" y="304" as="targetPoint" />
            <Array as="points">
              <mxPoint x="491.04" y="304" />
            </Array>
          </mxGeometry>
        </mxCell>
        <mxCell id="uuY7PIFbNGFS6GhnLK3d-97" value="" style="endArrow=classic;html=1;rounded=0;edgeStyle=orthogonalEdgeStyle;" parent="1" edge="1">
          <mxGeometry width="50" height="50" relative="1" as="geometry">
            <mxPoint x="489" y="347" as="sourcePoint" />
            <mxPoint x="565" y="348" as="targetPoint" />
            <Array as="points">
              <mxPoint x="489" y="348" />
            </Array>
          </mxGeometry>
        </mxCell>
        <mxCell id="uuY7PIFbNGFS6GhnLK3d-98" value="" style="endArrow=classic;html=1;rounded=0;edgeStyle=orthogonalEdgeStyle;" parent="1" edge="1">
          <mxGeometry width="50" height="50" relative="1" as="geometry">
            <mxPoint x="491.04" y="393" as="sourcePoint" />
            <mxPoint x="567.04" y="394" as="targetPoint" />
            <Array as="points">
              <mxPoint x="491.04" y="394" />
            </Array>
          </mxGeometry>
        </mxCell>
        <mxCell id="uuY7PIFbNGFS6GhnLK3d-99" value="" style="endArrow=classic;html=1;rounded=0;edgeStyle=orthogonalEdgeStyle;" parent="1" edge="1">
          <mxGeometry width="50" height="50" relative="1" as="geometry">
            <mxPoint x="491.03" y="440" as="sourcePoint" />
            <mxPoint x="567.03" y="441" as="targetPoint" />
            <Array as="points">
              <mxPoint x="491.03" y="441" />
            </Array>
          </mxGeometry>
        </mxCell>
        <mxCell id="uuY7PIFbNGFS6GhnLK3d-101" value="" style="endArrow=classic;html=1;rounded=0;edgeStyle=orthogonalEdgeStyle;entryX=0.002;entryY=0.512;entryDx=0;entryDy=0;entryPerimeter=0;" parent="1" target="gILt44JBYSnNEbUEAERU-87" edge="1">
          <mxGeometry width="50" height="50" relative="1" as="geometry">
            <mxPoint x="663" y="122" as="sourcePoint" />
            <mxPoint x="724.37" y="121.5" as="targetPoint" />
            <Array as="points">
              <mxPoint x="694" y="123" />
            </Array>
          </mxGeometry>
        </mxCell>
        <mxCell id="uuY7PIFbNGFS6GhnLK3d-104" value="" style="endArrow=classic;html=1;rounded=0;edgeStyle=orthogonalEdgeStyle;entryX=0;entryY=0.5;entryDx=0;entryDy=0;" parent="1" target="gILt44JBYSnNEbUEAERU-102" edge="1">
          <mxGeometry width="50" height="50" relative="1" as="geometry">
            <mxPoint x="490" y="123" as="sourcePoint" />
            <mxPoint x="547" y="120" as="targetPoint" />
            <Array as="points">
              <mxPoint x="491" y="123" />
            </Array>
          </mxGeometry>
        </mxCell>
        <mxCell id="uuY7PIFbNGFS6GhnLK3d-105" value="" style="endArrow=classic;html=1;rounded=0;edgeStyle=orthogonalEdgeStyle;entryX=0.002;entryY=0.512;entryDx=0;entryDy=0;entryPerimeter=0;" parent="1" edge="1">
          <mxGeometry width="50" height="50" relative="1" as="geometry">
            <mxPoint x="663" y="167.47" as="sourcePoint" />
            <mxPoint x="725" y="167.47" as="targetPoint" />
            <Array as="points">
              <mxPoint x="678.75" y="167.47" />
              <mxPoint x="678.75" y="167.47" />
            </Array>
          </mxGeometry>
        </mxCell>
        <mxCell id="uuY7PIFbNGFS6GhnLK3d-106" value="" style="endArrow=classic;html=1;rounded=0;edgeStyle=orthogonalEdgeStyle;entryX=0.002;entryY=0.512;entryDx=0;entryDy=0;entryPerimeter=0;" parent="1" edge="1">
          <mxGeometry width="50" height="50" relative="1" as="geometry">
            <mxPoint x="663" y="212.94" as="sourcePoint" />
            <mxPoint x="725" y="212.94" as="targetPoint" />
            <Array as="points">
              <mxPoint x="678.75" y="212.94" />
              <mxPoint x="678.75" y="212.94" />
            </Array>
          </mxGeometry>
        </mxCell>
        <mxCell id="uuY7PIFbNGFS6GhnLK3d-107" value="" style="endArrow=classic;html=1;rounded=0;edgeStyle=orthogonalEdgeStyle;entryX=0.002;entryY=0.512;entryDx=0;entryDy=0;entryPerimeter=0;" parent="1" edge="1">
          <mxGeometry width="50" height="50" relative="1" as="geometry">
            <mxPoint x="663.25" y="258.94" as="sourcePoint" />
            <mxPoint x="725.25" y="258.94" as="targetPoint" />
            <Array as="points">
              <mxPoint x="679" y="258.94" />
              <mxPoint x="679" y="258.94" />
            </Array>
          </mxGeometry>
        </mxCell>
        <mxCell id="uuY7PIFbNGFS6GhnLK3d-108" value="" style="endArrow=classic;html=1;rounded=0;edgeStyle=orthogonalEdgeStyle;entryX=0.002;entryY=0.512;entryDx=0;entryDy=0;entryPerimeter=0;" parent="1" edge="1">
          <mxGeometry width="50" height="50" relative="1" as="geometry">
            <mxPoint x="663.25" y="302.94" as="sourcePoint" />
            <mxPoint x="725.25" y="302.94" as="targetPoint" />
            <Array as="points">
              <mxPoint x="679" y="302.94" />
              <mxPoint x="679" y="302.94" />
            </Array>
          </mxGeometry>
        </mxCell>
        <mxCell id="uuY7PIFbNGFS6GhnLK3d-109" value="" style="endArrow=classic;html=1;rounded=0;edgeStyle=orthogonalEdgeStyle;entryX=0.002;entryY=0.512;entryDx=0;entryDy=0;entryPerimeter=0;" parent="1" edge="1">
          <mxGeometry width="50" height="50" relative="1" as="geometry">
            <mxPoint x="663.25" y="346.04" as="sourcePoint" />
            <mxPoint x="725.25" y="346.04" as="targetPoint" />
            <Array as="points">
              <mxPoint x="679" y="346.04" />
              <mxPoint x="679" y="346.04" />
            </Array>
          </mxGeometry>
        </mxCell>
        <mxCell id="uuY7PIFbNGFS6GhnLK3d-110" value="" style="endArrow=classic;html=1;rounded=0;edgeStyle=orthogonalEdgeStyle;entryX=0.002;entryY=0.512;entryDx=0;entryDy=0;entryPerimeter=0;" parent="1" edge="1">
          <mxGeometry width="50" height="50" relative="1" as="geometry">
            <mxPoint x="663.25" y="392.04" as="sourcePoint" />
            <mxPoint x="725.25" y="392.04" as="targetPoint" />
            <Array as="points">
              <mxPoint x="679" y="392.04" />
              <mxPoint x="679" y="392.04" />
            </Array>
          </mxGeometry>
        </mxCell>
        <mxCell id="uuY7PIFbNGFS6GhnLK3d-112" style="edgeStyle=orthogonalEdgeStyle;rounded=0;orthogonalLoop=1;jettySize=auto;html=1;" parent="1" source="gILt44JBYSnNEbUEAERU-102" target="gILt44JBYSnNEbUEAERU-64" edge="1">
          <mxGeometry relative="1" as="geometry">
            <Array as="points">
              <mxPoint x="643" y="123" />
              <mxPoint x="643" y="494" />
            </Array>
          </mxGeometry>
        </mxCell>
        <mxCell id="uuY7PIFbNGFS6GhnLK3d-113" value="" style="endArrow=none;html=1;rounded=0;" parent="1" edge="1">
          <mxGeometry width="50" height="50" relative="1" as="geometry">
            <mxPoint x="627" y="169" as="sourcePoint" />
            <mxPoint x="643" y="169" as="targetPoint" />
          </mxGeometry>
        </mxCell>
        <mxCell id="uuY7PIFbNGFS6GhnLK3d-114" value="" style="endArrow=none;html=1;rounded=0;" parent="1" edge="1">
          <mxGeometry width="50" height="50" relative="1" as="geometry">
            <mxPoint x="626.49" y="217.41" as="sourcePoint" />
            <mxPoint x="642.49" y="217.41" as="targetPoint" />
          </mxGeometry>
        </mxCell>
        <mxCell id="uuY7PIFbNGFS6GhnLK3d-115" value="" style="endArrow=none;html=1;rounded=0;" parent="1" edge="1">
          <mxGeometry width="50" height="50" relative="1" as="geometry">
            <mxPoint x="626.49" y="258.95" as="sourcePoint" />
            <mxPoint x="642.49" y="258.95" as="targetPoint" />
          </mxGeometry>
        </mxCell>
        <mxCell id="uuY7PIFbNGFS6GhnLK3d-116" value="" style="endArrow=none;html=1;rounded=0;" parent="1" edge="1">
          <mxGeometry width="50" height="50" relative="1" as="geometry">
            <mxPoint x="626.49" y="303.90999999999997" as="sourcePoint" />
            <mxPoint x="642.49" y="303.90999999999997" as="targetPoint" />
          </mxGeometry>
        </mxCell>
        <mxCell id="uuY7PIFbNGFS6GhnLK3d-117" value="" style="endArrow=none;html=1;rounded=0;" parent="1" edge="1">
          <mxGeometry width="50" height="50" relative="1" as="geometry">
            <mxPoint x="626.49" y="347.95" as="sourcePoint" />
            <mxPoint x="642.49" y="347.95" as="targetPoint" />
          </mxGeometry>
        </mxCell>
        <mxCell id="uuY7PIFbNGFS6GhnLK3d-118" value="" style="endArrow=none;html=1;rounded=0;" parent="1" edge="1">
          <mxGeometry width="50" height="50" relative="1" as="geometry">
            <mxPoint x="626.49" y="395.08" as="sourcePoint" />
            <mxPoint x="642.49" y="395.08" as="targetPoint" />
          </mxGeometry>
        </mxCell>
        <mxCell id="uuY7PIFbNGFS6GhnLK3d-119" value="" style="endArrow=none;html=1;rounded=0;" parent="1" edge="1">
          <mxGeometry width="50" height="50" relative="1" as="geometry">
            <mxPoint x="626.49" y="441" as="sourcePoint" />
            <mxPoint x="642.49" y="441" as="targetPoint" />
          </mxGeometry>
        </mxCell>
        <mxCell id="uuY7PIFbNGFS6GhnLK3d-120" value="" style="endArrow=none;html=1;rounded=0;edgeStyle=orthogonalEdgeStyle;" parent="1" edge="1">
          <mxGeometry width="50" height="50" relative="1" as="geometry">
            <mxPoint x="786.74" y="121.88" as="sourcePoint" />
            <mxPoint x="640.6046511627907" y="493" as="targetPoint" />
            <Array as="points">
              <mxPoint x="808" y="122" />
              <mxPoint x="808" y="494" />
              <mxPoint x="641" y="494" />
            </Array>
          </mxGeometry>
        </mxCell>
        <mxCell id="uuY7PIFbNGFS6GhnLK3d-121" value="" style="endArrow=none;html=1;rounded=0;edgeStyle=orthogonalEdgeStyle;exitX=1.006;exitY=0.532;exitDx=0;exitDy=0;exitPerimeter=0;" parent="1" source="gILt44JBYSnNEbUEAERU-81" edge="1">
          <mxGeometry width="50" height="50" relative="1" as="geometry">
            <mxPoint x="792" y="168" as="sourcePoint" />
            <mxPoint x="808" y="169" as="targetPoint" />
            <Array as="points">
              <mxPoint x="792" y="169" />
            </Array>
          </mxGeometry>
        </mxCell>
        <mxCell id="uuY7PIFbNGFS6GhnLK3d-122" value="" style="endArrow=none;html=1;rounded=0;edgeStyle=orthogonalEdgeStyle;exitX=1.006;exitY=0.532;exitDx=0;exitDy=0;exitPerimeter=0;" parent="1" edge="1">
          <mxGeometry width="50" height="50" relative="1" as="geometry">
            <mxPoint x="786.74" y="212.97" as="sourcePoint" />
            <mxPoint x="807.74" y="212.97" as="targetPoint" />
            <Array as="points">
              <mxPoint x="791.74" y="212.97" />
            </Array>
          </mxGeometry>
        </mxCell>
        <mxCell id="uuY7PIFbNGFS6GhnLK3d-123" value="" style="endArrow=none;html=1;rounded=0;edgeStyle=orthogonalEdgeStyle;exitX=1.006;exitY=0.532;exitDx=0;exitDy=0;exitPerimeter=0;" parent="1" edge="1">
          <mxGeometry width="50" height="50" relative="1" as="geometry">
            <mxPoint x="786.49" y="258.97" as="sourcePoint" />
            <mxPoint x="807.49" y="258.97" as="targetPoint" />
            <Array as="points">
              <mxPoint x="791.49" y="258.97" />
            </Array>
          </mxGeometry>
        </mxCell>
        <mxCell id="uuY7PIFbNGFS6GhnLK3d-124" value="" style="endArrow=none;html=1;rounded=0;edgeStyle=orthogonalEdgeStyle;exitX=1.006;exitY=0.532;exitDx=0;exitDy=0;exitPerimeter=0;" parent="1" edge="1">
          <mxGeometry width="50" height="50" relative="1" as="geometry">
            <mxPoint x="786.49" y="302.96000000000004" as="sourcePoint" />
            <mxPoint x="807.49" y="302.96000000000004" as="targetPoint" />
            <Array as="points">
              <mxPoint x="791.49" y="302.96000000000004" />
            </Array>
          </mxGeometry>
        </mxCell>
        <mxCell id="uuY7PIFbNGFS6GhnLK3d-125" value="" style="endArrow=none;html=1;rounded=0;edgeStyle=orthogonalEdgeStyle;exitX=1.006;exitY=0.532;exitDx=0;exitDy=0;exitPerimeter=0;" parent="1" edge="1">
          <mxGeometry width="50" height="50" relative="1" as="geometry">
            <mxPoint x="786.74" y="346.00000000000006" as="sourcePoint" />
            <mxPoint x="807.74" y="346.00000000000006" as="targetPoint" />
            <Array as="points">
              <mxPoint x="791.74" y="346.00000000000006" />
            </Array>
          </mxGeometry>
        </mxCell>
        <mxCell id="uuY7PIFbNGFS6GhnLK3d-126" value="" style="endArrow=none;html=1;rounded=0;edgeStyle=orthogonalEdgeStyle;exitX=1.006;exitY=0.532;exitDx=0;exitDy=0;exitPerimeter=0;" parent="1" edge="1">
          <mxGeometry width="50" height="50" relative="1" as="geometry">
            <mxPoint x="786.74" y="392.00000000000006" as="sourcePoint" />
            <mxPoint x="807.74" y="392.00000000000006" as="targetPoint" />
            <Array as="points">
              <mxPoint x="791.74" y="392.00000000000006" />
            </Array>
          </mxGeometry>
        </mxCell>
        <mxCell id="uuY7PIFbNGFS6GhnLK3d-127" value="" style="endArrow=none;html=1;rounded=0;edgeStyle=orthogonalEdgeStyle;exitX=1.006;exitY=0.532;exitDx=0;exitDy=0;exitPerimeter=0;" parent="1" edge="1">
          <mxGeometry width="50" height="50" relative="1" as="geometry">
            <mxPoint x="786.74" y="436.00000000000006" as="sourcePoint" />
            <mxPoint x="807.74" y="436.00000000000006" as="targetPoint" />
            <Array as="points">
              <mxPoint x="791.74" y="436.00000000000006" />
            </Array>
          </mxGeometry>
        </mxCell>
        <mxCell id="uuY7PIFbNGFS6GhnLK3d-128" value="_" style="text;html=1;align=center;verticalAlign=middle;whiteSpace=wrap;rounded=0;rotation=0;" parent="1" vertex="1">
          <mxGeometry x="377.7900000000001" y="541" width="21.21" height="14" as="geometry" />
        </mxCell>
        <mxCell id="uuY7PIFbNGFS6GhnLK3d-129" value="_,a-z,A-Z,0-9" style="text;html=1;align=center;verticalAlign=middle;whiteSpace=wrap;rounded=0;rotation=0;" parent="1" vertex="1">
          <mxGeometry x="399" y="408" width="77.74" height="14" as="geometry" />
        </mxCell>
        <mxCell id="uuY7PIFbNGFS6GhnLK3d-130" value="&lt;div&gt;a-z,A-Z&lt;/div&gt;" style="text;html=1;align=center;verticalAlign=middle;whiteSpace=wrap;rounded=0;rotation=0;" parent="1" vertex="1">
          <mxGeometry x="342.27" y="502" width="63.47" height="14" as="geometry" />
        </mxCell>
        <mxCell id="uuY7PIFbNGFS6GhnLK3d-131" value="&lt;div&gt;_,a-z,&lt;/div&gt;&lt;div&gt;A-Z,0-9&lt;/div&gt;" style="text;html=1;align=center;verticalAlign=middle;whiteSpace=wrap;rounded=0;rotation=0;" parent="1" vertex="1">
          <mxGeometry x="530.01" y="519" width="77.74" height="14" as="geometry" />
        </mxCell>
        <mxCell id="uuY7PIFbNGFS6GhnLK3d-132" value="EOF" style="text;html=1;align=center;verticalAlign=middle;whiteSpace=wrap;rounded=0;rotation=0;" parent="1" vertex="1">
          <mxGeometry x="304.40000000000003" y="402" width="21.21" height="14" as="geometry" />
        </mxCell>
        <mxCell id="uuY7PIFbNGFS6GhnLK3d-133" value="var" style="text;html=1;align=center;verticalAlign=middle;whiteSpace=wrap;rounded=0;rotation=0;" parent="1" vertex="1">
          <mxGeometry x="685.07" y="106.5" width="21.21" height="14" as="geometry" />
        </mxCell>
        <mxCell id="uuY7PIFbNGFS6GhnLK3d-134" value="void" style="text;html=1;align=center;verticalAlign=middle;whiteSpace=wrap;rounded=0;rotation=0;" parent="1" vertex="1">
          <mxGeometry x="690" y="328.99999999999994" width="21.21" height="14" as="geometry" />
        </mxCell>
        <mxCell id="uuY7PIFbNGFS6GhnLK3d-135" value="return" style="text;html=1;align=center;verticalAlign=middle;whiteSpace=wrap;rounded=0;rotation=0;" parent="1" vertex="1">
          <mxGeometry x="526" y="149.99999999999994" width="21.21" height="14" as="geometry" />
        </mxCell>
        <mxCell id="uuY7PIFbNGFS6GhnLK3d-136" value="pub" style="text;html=1;align=center;verticalAlign=middle;whiteSpace=wrap;rounded=0;rotation=0;" parent="1" vertex="1">
          <mxGeometry x="690" y="153.99999999999994" width="21.21" height="14" as="geometry" />
        </mxCell>
        <mxCell id="uuY7PIFbNGFS6GhnLK3d-137" value="u8" style="text;html=1;align=center;verticalAlign=middle;whiteSpace=wrap;rounded=0;rotation=0;" parent="1" vertex="1">
          <mxGeometry x="693.63" y="374.99999999999994" width="21.21" height="14" as="geometry" />
        </mxCell>
        <mxCell id="uuY7PIFbNGFS6GhnLK3d-138" value="main" style="text;html=1;align=center;verticalAlign=middle;whiteSpace=wrap;rounded=0;rotation=0;" parent="1" vertex="1">
          <mxGeometry x="530.01" y="199.99999999999994" width="21.21" height="14" as="geometry" />
        </mxCell>
        <mxCell id="uuY7PIFbNGFS6GhnLK3d-139" value="fn" style="text;html=1;align=center;verticalAlign=middle;whiteSpace=wrap;rounded=0;rotation=0;" parent="1" vertex="1">
          <mxGeometry x="698" y="196.99999999999994" width="21.21" height="14" as="geometry" />
        </mxCell>
        <mxCell id="uuY7PIFbNGFS6GhnLK3d-140" value="f64" style="text;html=1;align=center;verticalAlign=middle;whiteSpace=wrap;rounded=0;rotation=0;" parent="1" vertex="1">
          <mxGeometry x="698" y="419.49999999999994" width="21.21" height="14" as="geometry" />
        </mxCell>
        <mxCell id="uuY7PIFbNGFS6GhnLK3d-141" value="while" style="text;html=1;align=center;verticalAlign=middle;whiteSpace=wrap;rounded=0;rotation=0;" parent="1" vertex="1">
          <mxGeometry x="530.01" y="241.99999999999994" width="21.21" height="14" as="geometry" />
        </mxCell>
        <mxCell id="uuY7PIFbNGFS6GhnLK3d-142" value="else" style="text;html=1;align=center;verticalAlign=middle;whiteSpace=wrap;rounded=0;rotation=0;" parent="1" vertex="1">
          <mxGeometry x="693.63" y="243.49999999999994" width="21.21" height="14" as="geometry" />
        </mxCell>
        <mxCell id="uuY7PIFbNGFS6GhnLK3d-143" value="if" style="text;html=1;align=center;verticalAlign=middle;whiteSpace=wrap;rounded=0;rotation=0;" parent="1" vertex="1">
          <mxGeometry x="534.7" y="331.99999999999994" width="21.21" height="14" as="geometry" />
        </mxCell>
        <mxCell id="uuY7PIFbNGFS6GhnLK3d-144" value="i32" style="text;html=1;align=center;verticalAlign=middle;whiteSpace=wrap;rounded=0;rotation=0;" parent="1" vertex="1">
          <mxGeometry x="534.7" y="287.99999999999994" width="21.21" height="14" as="geometry" />
        </mxCell>
        <mxCell id="uuY7PIFbNGFS6GhnLK3d-145" value="ifj" style="text;html=1;align=center;verticalAlign=middle;whiteSpace=wrap;rounded=0;rotation=0;" parent="1" vertex="1">
          <mxGeometry x="698" y="286.49999999999994" width="21.21" height="14" as="geometry" />
        </mxCell>
        <mxCell id="uuY7PIFbNGFS6GhnLK3d-146" value="import" style="text;html=1;align=center;verticalAlign=middle;whiteSpace=wrap;rounded=0;rotation=0;" parent="1" vertex="1">
          <mxGeometry x="530.01" y="376.12999999999994" width="21.21" height="14" as="geometry" />
        </mxCell>
        <mxCell id="uuY7PIFbNGFS6GhnLK3d-147" value="null" style="text;html=1;align=center;verticalAlign=middle;whiteSpace=wrap;rounded=0;rotation=0;" parent="1" vertex="1">
          <mxGeometry x="534.6999999999999" y="425.99999999999994" width="21.21" height="14" as="geometry" />
        </mxCell>
        <mxCell id="uuY7PIFbNGFS6GhnLK3d-148" value="_,a-z,A-Z,0-9" style="text;html=1;align=center;verticalAlign=middle;whiteSpace=wrap;rounded=0;rotation=0;" parent="1" vertex="1">
          <mxGeometry x="494.74" y="475" width="77.74" height="14" as="geometry" />
        </mxCell>
        <mxCell id="uuY7PIFbNGFS6GhnLK3d-153" value="\" style="text;html=1;align=center;verticalAlign=middle;whiteSpace=wrap;rounded=0;rotation=0;" parent="1" vertex="1">
          <mxGeometry x="343.00000000000006" y="597" width="21.21" height="14" as="geometry" />
        </mxCell>
        <mxCell id="uuY7PIFbNGFS6GhnLK3d-155" value="&quot;ostatní&quot;" style="text;html=1;align=center;verticalAlign=middle;whiteSpace=wrap;rounded=0;rotation=0;" parent="1" vertex="1">
          <mxGeometry x="547.21" y="682.17" width="21.21" height="14" as="geometry" />
        </mxCell>
        <mxCell id="uuY7PIFbNGFS6GhnLK3d-160" value="\" style="text;html=1;align=center;verticalAlign=middle;whiteSpace=wrap;rounded=0;rotation=0;" parent="1" vertex="1">
          <mxGeometry x="484.73000000000013" y="626" width="21.21" height="14" as="geometry" />
        </mxCell>
        <mxCell id="uuY7PIFbNGFS6GhnLK3d-169" value="\" style="text;html=1;align=center;verticalAlign=middle;whiteSpace=wrap;rounded=0;rotation=0;" parent="1" vertex="1">
          <mxGeometry x="400.5200000000001" y="668.17" width="21.21" height="14" as="geometry" />
        </mxCell>
        <mxCell id="uuY7PIFbNGFS6GhnLK3d-170" value="&lt;div&gt;&quot;mezera&quot;,&lt;/div&gt;&lt;div&gt;\t,\r,\n&lt;/div&gt;" style="text;html=1;align=center;verticalAlign=middle;whiteSpace=wrap;rounded=0;" parent="1" vertex="1">
          <mxGeometry x="700.21" y="584" width="84" height="30" as="geometry" />
        </mxCell>
        <mxCell id="uuY7PIFbNGFS6GhnLK3d-176" value="&quot;" style="text;html=1;align=center;verticalAlign=middle;whiteSpace=wrap;rounded=0;rotation=0;" parent="1" vertex="1">
          <mxGeometry x="306.43000000000006" y="661.8299999999999" width="21.21" height="14" as="geometry" />
        </mxCell>
        <mxCell id="uuY7PIFbNGFS6GhnLK3d-177" value="&quot;ostatní&quot;" style="text;html=1;align=center;verticalAlign=middle;whiteSpace=wrap;rounded=0;rotation=0;" parent="1" vertex="1">
          <mxGeometry x="369.09" y="955" width="21.21" height="14" as="geometry" />
        </mxCell>
        <mxCell id="uuY7PIFbNGFS6GhnLK3d-178" value="\" style="text;html=1;align=center;verticalAlign=middle;whiteSpace=wrap;rounded=0;rotation=0;" parent="1" vertex="1">
          <mxGeometry x="530.0100000000001" y="907.83" width="21.21" height="14" as="geometry" />
        </mxCell>
        <mxCell id="uuY7PIFbNGFS6GhnLK3d-179" value="x" style="text;html=1;align=center;verticalAlign=middle;whiteSpace=wrap;rounded=0;rotation=0;" parent="1" vertex="1">
          <mxGeometry x="619.26" y="907.83" width="21.21" height="14" as="geometry" />
        </mxCell>
        <mxCell id="uuY7PIFbNGFS6GhnLK3d-183" value="&lt;div&gt;a-f,A-F,0-9&lt;/div&gt;" style="text;html=1;align=center;verticalAlign=middle;whiteSpace=wrap;rounded=0;rotation=0;" parent="1" vertex="1">
          <mxGeometry x="676" y="1039.42" width="66.46" height="14" as="geometry" />
        </mxCell>
        <mxCell id="uuY7PIFbNGFS6GhnLK3d-187" value="\" style="text;html=1;align=center;verticalAlign=middle;whiteSpace=wrap;rounded=0;rotation=0;" parent="1" vertex="1">
          <mxGeometry x="468.7300000000002" y="936.1700000000001" width="21.21" height="14" as="geometry" />
        </mxCell>
        <mxCell id="uuY7PIFbNGFS6GhnLK3d-188" value="" style="endArrow=classic;startArrow=classic;html=1;rounded=0;edgeStyle=orthogonalEdgeStyle;" parent="1" source="uuY7PIFbNGFS6GhnLK3d-1" target="uuY7PIFbNGFS6GhnLK3d-11" edge="1">
          <mxGeometry width="50" height="50" relative="1" as="geometry">
            <mxPoint x="547" y="921" as="sourcePoint" />
            <mxPoint x="597" y="871" as="targetPoint" />
            <Array as="points">
              <mxPoint x="532" y="953" />
            </Array>
          </mxGeometry>
        </mxCell>
        <mxCell id="uuY7PIFbNGFS6GhnLK3d-189" value="&quot;" style="text;html=1;align=center;verticalAlign=middle;whiteSpace=wrap;rounded=0;rotation=0;" parent="1" vertex="1">
          <mxGeometry x="390.7900000000001" y="1016" width="21.21" height="14" as="geometry" />
        </mxCell>
        <mxCell id="uuY7PIFbNGFS6GhnLK3d-191" value="1-9" style="text;html=1;align=center;verticalAlign=middle;whiteSpace=wrap;rounded=0;rotation=0;" parent="1" vertex="1">
          <mxGeometry x="205" y="668.1700000000001" width="20.74" height="14" as="geometry" />
        </mxCell>
        <mxCell id="uuY7PIFbNGFS6GhnLK3d-192" value="0" style="text;html=1;align=center;verticalAlign=middle;whiteSpace=wrap;rounded=0;rotation=0;" parent="1" vertex="1">
          <mxGeometry x="116.00000000000001" y="661.83" width="28.26" height="14" as="geometry" />
        </mxCell>
        <mxCell id="uuY7PIFbNGFS6GhnLK3d-193" value="0-9" style="text;html=1;align=center;verticalAlign=middle;whiteSpace=wrap;rounded=0;rotation=0;" parent="1" vertex="1">
          <mxGeometry x="244.27" y="725" width="34.73" height="14" as="geometry" />
        </mxCell>
        <mxCell id="uuY7PIFbNGFS6GhnLK3d-194" value="0-9" style="text;html=1;align=center;verticalAlign=middle;whiteSpace=wrap;rounded=0;rotation=0;" parent="1" vertex="1">
          <mxGeometry x="46.72000000000001" y="671" width="34.73" height="14" as="geometry" />
        </mxCell>
        <mxCell id="uuY7PIFbNGFS6GhnLK3d-195" value="&lt;font style=&quot;font-size: 16px;&quot;&gt;.&lt;/font&gt;" style="text;html=1;align=center;verticalAlign=middle;whiteSpace=wrap;rounded=0;" parent="1" vertex="1">
          <mxGeometry x="75.37" y="777.58" width="16" height="17" as="geometry" />
        </mxCell>
        <mxCell id="uuY7PIFbNGFS6GhnLK3d-197" value="0-9" style="text;html=1;align=center;verticalAlign=middle;whiteSpace=wrap;rounded=0;rotation=0;" parent="1" vertex="1">
          <mxGeometry x="63" y="924.83" width="34.73" height="14" as="geometry" />
        </mxCell>
        <mxCell id="uuY7PIFbNGFS6GhnLK3d-198" value="e,E" style="text;html=1;align=center;verticalAlign=middle;whiteSpace=wrap;rounded=0;rotation=0;" parent="1" vertex="1">
          <mxGeometry x="163.79000000000002" y="813" width="41.21" height="14" as="geometry" />
        </mxCell>
        <mxCell id="uuY7PIFbNGFS6GhnLK3d-199" value="e,E" style="text;html=1;align=center;verticalAlign=middle;whiteSpace=wrap;rounded=0;rotation=0;" parent="1" vertex="1">
          <mxGeometry x="122.00000000000001" y="941" width="41.21" height="14" as="geometry" />
        </mxCell>
        <mxCell id="uuY7PIFbNGFS6GhnLK3d-201" value="+,-" style="text;html=1;align=center;verticalAlign=middle;whiteSpace=wrap;rounded=0;rotation=0;" parent="1" vertex="1">
          <mxGeometry x="203.72" y="861" width="41.21" height="14" as="geometry" />
        </mxCell>
        <mxCell id="uuY7PIFbNGFS6GhnLK3d-202" value="0-9" style="text;html=1;align=center;verticalAlign=middle;whiteSpace=wrap;rounded=0;rotation=0;" parent="1" vertex="1">
          <mxGeometry x="46.72" y="1036" width="34.73" height="14" as="geometry" />
        </mxCell>
        <mxCell id="uuY7PIFbNGFS6GhnLK3d-203" value="0-9" style="text;html=1;align=center;verticalAlign=middle;whiteSpace=wrap;rounded=0;rotation=0;" parent="1" vertex="1">
          <mxGeometry x="175.87" y="1036" width="34.73" height="14" as="geometry" />
        </mxCell>
        <mxCell id="uuY7PIFbNGFS6GhnLK3d-204" value="0-9" style="text;html=1;align=center;verticalAlign=middle;whiteSpace=wrap;rounded=0;rotation=0;" parent="1" vertex="1">
          <mxGeometry x="217.48000000000002" y="969" width="34.73" height="14" as="geometry" />
        </mxCell>
        <mxCell id="lOUSK_32VjzUn_8jC9jI-3" value="&lt;div&gt;a-f,A-F,0-9&lt;/div&gt;" style="text;html=1;align=center;verticalAlign=middle;whiteSpace=wrap;rounded=0;rotation=0;" parent="1" vertex="1">
          <mxGeometry x="438.47999999999996" y="1036" width="66.46" height="14" as="geometry" />
        </mxCell>
      </root>
    </mxGraphModel>
  </diagram>
</mxfile>
